<svg width="24" height="24" viewBox="0 0 24 24" fill="none" xmlns="http://www.w3.org/2000/svg">
<path fill-rule="evenodd" clip-rule="evenodd" d="M13.7935 12.1091L18.1096 7.536C18.6177 7.0279 18.6177 6.20322 18.1096 5.69382C17.6002 5.18572 16.7755 5.18572 16.2675 5.69382L11.9513 10.267L7.73347 5.69382C7.22538 5.18572 6.40071 5.18572 5.89132 5.69382C5.38193 6.20322 5.38193 7.0279 5.89132 7.536L10.1092 12.1091L5.89132 16.4631C5.38193 16.9712 5.38193 17.7959 5.89132 18.3053C6.14536 18.5594 6.47888 18.687 6.81239 18.687C7.14591 18.687 7.47942 18.5594 7.73347 18.3053L11.9513 13.9513L16.2675 18.3053C16.5215 18.5594 16.855 18.687 17.1885 18.687C17.522 18.687 17.8543 18.5594 18.1096 18.3053C18.6177 17.7959 18.6177 16.9712 18.1096 16.4631L13.7935 12.1091Z" fill="black"/>
<mask id="mask0_0_1735" style="mask-type:alpha" maskUnits="userSpaceOnUse" x="5" y="5" width="14" height="14">
<path fill-rule="evenodd" clip-rule="evenodd" d="M13.7935 12.1091L18.1096 7.536C18.6177 7.0279 18.6177 6.20322 18.1096 5.69382C17.6002 5.18572 16.7755 5.18572 16.2675 5.69382L11.9513 10.267L7.73347 5.69382C7.22538 5.18572 6.40071 5.18572 5.89132 5.69382C5.38193 6.20322 5.38193 7.0279 5.89132 7.536L10.1092 12.1091L5.89132 16.4631C5.38193 16.9712 5.38193 17.7959 5.89132 18.3053C6.14536 18.5594 6.47888 18.687 6.81239 18.687C7.14591 18.687 7.47942 18.5594 7.73347 18.3053L11.9513 13.9513L16.2675 18.3053C16.5215 18.5594 16.855 18.687 17.1885 18.687C17.522 18.687 17.8543 18.5594 18.1096 18.3053C18.6177 17.7959 18.6177 16.9712 18.1096 16.4631L13.7935 12.1091Z" fill="white"/>
</mask>
<g mask="url(#mask0_0_1735)">
<rect x="-34.3745" y="-35.1458" width="96" height="96" fill="#373A42"/>
</g>
</svg>
