<svg width="8" height="8" viewBox="0 0 8 8" fill="none" xmlns="http://www.w3.org/2000/svg">
<path fill-rule="evenodd" clip-rule="evenodd" d="M4.00043 7.28483C3.73543 7.28483 3.48043 7.17983 3.29343 6.99183L0.723426 4.42183C0.332426 4.03183 0.332426 3.39883 0.723426 3.00783C1.11343 2.61783 1.74643 2.61783 2.13743 3.00783L4.00043 4.87083L5.86243 3.00783C6.25343 2.61783 6.88643 2.61783 7.27643 3.00783C7.66743 3.39783 7.66743 4.03183 7.27643 4.42183L4.70743 6.99183C4.52043 7.17983 4.26643 7.28483 4.00043 7.28483Z" fill="black"/>
<mask id="mask0_0_1740" style="mask-type:alpha" maskUnits="userSpaceOnUse" x="0" y="2" width="8" height="6">
<path fill-rule="evenodd" clip-rule="evenodd" d="M4.00043 7.28483C3.73543 7.28483 3.48043 7.17983 3.29343 6.99183L0.723426 4.42183C0.332426 4.03183 0.332426 3.39883 0.723426 3.00783C1.11343 2.61783 1.74643 2.61783 2.13743 3.00783L4.00043 4.87083L5.86243 3.00783C6.25343 2.61783 6.88643 2.61783 7.27643 3.00783C7.66743 3.39783 7.66743 4.03183 7.27643 4.42183L4.70743 6.99183C4.52043 7.17983 4.26643 7.28483 4.00043 7.28483Z" fill="white"/>
</mask>
<g mask="url(#mask0_0_1740)">
<rect x="-44" y="-43" width="96" height="96" fill="#373A42"/>
</g>
</svg>
