<svg width="8" height="8" viewBox="0 0 8 8" fill="none" xmlns="http://www.w3.org/2000/svg">
<path fill-rule="evenodd" clip-rule="evenodd" d="M6.28483 3.99957C6.28483 4.26457 6.17983 4.51957 5.99183 4.70657L3.42183 7.27657C3.03183 7.66757 2.39883 7.66757 2.00783 7.27657C1.61783 6.88657 1.61783 6.25357 2.00783 5.86257L3.87083 3.99957L2.00783 2.13757C1.61783 1.74657 1.61783 1.11357 2.00783 0.723574C2.39783 0.332574 3.03183 0.332574 3.42183 0.723574L5.99183 3.29257C6.17983 3.47957 6.28483 3.73357 6.28483 3.99957Z" fill="black"/>
<mask id="mask0_0_1745" style="mask-type:alpha" maskUnits="userSpaceOnUse" x="1" y="0" width="6" height="8">
<path fill-rule="evenodd" clip-rule="evenodd" d="M6.28483 3.99957C6.28483 4.26457 6.17983 4.51957 5.99183 4.70657L3.42183 7.27657C3.03183 7.66757 2.39883 7.66757 2.00783 7.27657C1.61783 6.88657 1.61783 6.25357 2.00783 5.86257L3.87083 3.99957L2.00783 2.13757C1.61783 1.74657 1.61783 1.11357 2.00783 0.723574C2.39783 0.332574 3.03183 0.332574 3.42183 0.723574L5.99183 3.29257C6.17983 3.47957 6.28483 3.73357 6.28483 3.99957Z" fill="white"/>
</mask>
<g mask="url(#mask0_0_1745)">
<rect x="-44" y="52" width="96" height="96" transform="rotate(-90 -44 52)" fill="#373A42"/>
</g>
</svg>
