<svg width="24" height="24" viewBox="0 0 24 24" fill="none" xmlns="http://www.w3.org/2000/svg">
<path fill-rule="evenodd" clip-rule="evenodd" d="M6.00049 12.2395C6.00049 15.6795 8.79949 18.4785 12.2395 18.4785C15.6795 18.4785 18.4785 15.6795 18.4785 12.2395C18.4785 8.79851 15.6795 5.99951 12.2395 5.99951C8.79949 5.99951 6.00049 8.79851 6.00049 12.2395ZM4.00049 12.2395C4.00049 7.69651 7.69649 3.99951 12.2395 3.99951C16.7825 3.99951 20.4785 7.69651 20.4785 12.2395C20.4785 16.7825 16.7825 20.4785 12.2395 20.4785C7.69649 20.4785 4.00049 16.7825 4.00049 12.2395ZM9.07609 16.028C8.73709 15.592 8.81709 14.964 9.25409 14.626C10.8691 13.372 13.6091 13.372 15.2251 14.626C15.6611 14.964 15.7411 15.592 15.4021 16.028C15.2061 16.283 14.9101 16.416 14.6111 16.416C14.3981 16.416 14.1821 16.348 14.0001 16.206C13.0941 15.505 11.3851 15.505 10.4791 16.206C10.0431 16.546 9.41309 16.466 9.07609 16.028ZM9.84389 11.7598C9.84389 11.2068 9.39589 10.7598 8.84389 10.7598C8.29089 10.7598 7.84389 11.2068 7.84389 11.7598C7.84389 12.3118 8.29089 12.7598 8.84389 12.7598C9.39589 12.7598 9.84389 12.3118 9.84389 11.7598ZM14.635 11.7598C14.635 11.2068 15.083 10.7598 15.635 10.7598C16.188 10.7598 16.635 11.2068 16.635 11.7598C16.635 12.3118 16.188 12.7598 15.635 12.7598C15.083 12.7598 14.635 12.3118 14.635 11.7598Z" fill="#FC1055"/>
<mask id="mask0_0_1750" style="mask-type:alpha" maskUnits="userSpaceOnUse" x="4" y="3" width="17" height="18">
<path fill-rule="evenodd" clip-rule="evenodd" d="M6.00049 12.2395C6.00049 15.6795 8.79949 18.4785 12.2395 18.4785C15.6795 18.4785 18.4785 15.6795 18.4785 12.2395C18.4785 8.79851 15.6795 5.99951 12.2395 5.99951C8.79949 5.99951 6.00049 8.79851 6.00049 12.2395ZM4.00049 12.2395C4.00049 7.69651 7.69649 3.99951 12.2395 3.99951C16.7825 3.99951 20.4785 7.69651 20.4785 12.2395C20.4785 16.7825 16.7825 20.4785 12.2395 20.4785C7.69649 20.4785 4.00049 16.7825 4.00049 12.2395ZM9.07609 16.028C8.73709 15.592 8.81709 14.964 9.25409 14.626C10.8691 13.372 13.6091 13.372 15.2251 14.626C15.6611 14.964 15.7411 15.592 15.4021 16.028C15.2061 16.283 14.9101 16.416 14.6111 16.416C14.3981 16.416 14.1821 16.348 14.0001 16.206C13.0941 15.505 11.3851 15.505 10.4791 16.206C10.0431 16.546 9.41309 16.466 9.07609 16.028ZM9.84389 11.7598C9.84389 11.2068 9.39589 10.7598 8.84389 10.7598C8.29089 10.7598 7.84389 11.2068 7.84389 11.7598C7.84389 12.3118 8.29089 12.7598 8.84389 12.7598C9.39589 12.7598 9.84389 12.3118 9.84389 11.7598ZM14.635 11.7598C14.635 11.2068 15.083 10.7598 15.635 10.7598C16.188 10.7598 16.635 11.2068 16.635 11.7598C16.635 12.3118 16.188 12.7598 15.635 12.7598C15.083 12.7598 14.635 12.3118 14.635 11.7598Z" fill="white"/>
</mask>
<g mask="url(#mask0_0_1750)">
<rect x="-36" y="-36" width="96" height="96" fill="#373A42"/>
</g>
</svg>
