<svg width="3" height="3" viewBox="0 0 3 3" fill="none" xmlns="http://www.w3.org/2000/svg">
    <path
        d="M1.5 3C1.23481 3 0.986189 2.9338 0.754144 2.80141C0.522098 2.66901 0.338398 2.48873 0.203039 2.26056C0.0676789 2.03239 0 1.78028 0 1.50423C0 1.24507 0.0649165 1 0.194751 0.769014C0.324586 0.538027 0.504143 0.352113 0.733425 0.211268C0.962708 0.0704218 1.21823 0 1.5 0C1.76519 0 2.01243 0.0661965 2.24171 0.198592C2.471 0.330987 2.6547 0.511266 2.79282 0.739437C2.93094 0.967607 3 1.22253 3 1.50423C3 1.77465 2.93232 2.02394 2.79696 2.25211C2.6616 2.48028 2.47928 2.66197 2.25 2.79718C2.02072 2.93239 1.77072 3 1.5 3Z"
        fill="white" />
</svg>
