<svg width="24" height="24" viewBox="0 0 24 24" fill="none" xmlns="http://www.w3.org/2000/svg">
<path fill-rule="evenodd" clip-rule="evenodd" d="M9.15742 7.324C9.97642 6.483 11.1574 6 12.3974 6C13.6384 6 14.8184 6.483 15.6384 7.324C16.4254 8.133 16.8254 9.185 16.7934 10.364C16.7554 11.811 15.9304 13.319 15.2164 14.472C14.4474 15.71 13.1674 16.984 12.3974 17.697C11.6284 16.984 10.3474 15.71 9.58042 14.473C8.86542 13.319 8.04042 11.81 8.00142 10.364C7.97042 9.185 8.36942 8.134 9.15742 7.324ZM11.7554 19.804C11.9414 19.959 12.1694 20.037 12.3974 20.037C12.6264 20.037 12.8544 19.959 13.0404 19.804L13.0425 19.8023C13.1721 19.6929 15.6051 17.6386 16.9154 15.525C17.7634 14.159 18.7414 12.343 18.7934 10.417C18.8384 8.711 18.2274 7.117 17.0704 5.929C15.8784 4.704 14.1754 4.001 12.3974 4C10.6204 4.001 8.91742 4.704 7.72442 5.929C6.56842 7.117 5.95642 8.711 6.00242 10.417C6.05342 12.331 6.98042 14.073 7.88042 15.526C9.19071 17.6386 11.6237 19.6928 11.7534 19.8023L11.7554 19.804ZM12.3984 11.295C12.9974 11.295 13.4834 10.809 13.4834 10.209C13.4834 9.609 12.9974 9.124 12.3984 9.124C11.7984 9.124 11.3124 9.609 11.3124 10.209C11.3124 10.809 11.7984 11.295 12.3984 11.295Z" fill="black"/>
<mask id="mask0_0_1774" style="mask-type:alpha" maskUnits="userSpaceOnUse" x="6" y="4" width="13" height="17">
<path fill-rule="evenodd" clip-rule="evenodd" d="M9.15742 7.324C9.97642 6.483 11.1574 6 12.3974 6C13.6384 6 14.8184 6.483 15.6384 7.324C16.4254 8.133 16.8254 9.185 16.7934 10.364C16.7554 11.811 15.9304 13.319 15.2164 14.472C14.4474 15.71 13.1674 16.984 12.3974 17.697C11.6284 16.984 10.3474 15.71 9.58042 14.473C8.86542 13.319 8.04042 11.81 8.00142 10.364C7.97042 9.185 8.36942 8.134 9.15742 7.324ZM11.7554 19.804C11.9414 19.959 12.1694 20.037 12.3974 20.037C12.6264 20.037 12.8544 19.959 13.0404 19.804L13.0425 19.8023C13.1721 19.6929 15.6051 17.6386 16.9154 15.525C17.7634 14.159 18.7414 12.343 18.7934 10.417C18.8384 8.711 18.2274 7.117 17.0704 5.929C15.8784 4.704 14.1754 4.001 12.3974 4C10.6204 4.001 8.91742 4.704 7.72442 5.929C6.56842 7.117 5.95642 8.711 6.00242 10.417C6.05342 12.331 6.98042 14.073 7.88042 15.526C9.19071 17.6386 11.6237 19.6928 11.7534 19.8023L11.7554 19.804ZM12.3984 11.295C12.9974 11.295 13.4834 10.809 13.4834 10.209C13.4834 9.609 12.9974 9.124 12.3984 9.124C11.7984 9.124 11.3124 9.609 11.3124 10.209C11.3124 10.809 11.7984 11.295 12.3984 11.295Z" fill="white"/>
</mask>
<g mask="url(#mask0_0_1774)">
<rect x="-36" y="-36" width="96" height="96" fill="#373A42"/>
</g>
</svg>
