<svg width="8" height="8" viewBox="0 0 8 8" fill="none" xmlns="http://www.w3.org/2000/svg">
<path fill-rule="evenodd" clip-rule="evenodd" d="M7.37867 0.0397359L0.261174 3.21162C-0.135863 3.38879 -0.0634778 3.97326 0.36489 4.0478L3.11336 4.52801C3.29648 4.55988 3.43963 4.70303 3.47204 4.88615L3.95173 7.63561C4.02681 8.06343 4.61076 8.13581 4.78794 7.73879L7.96045 0.620959C8.12467 0.252563 7.74762 -0.125016 7.37867 0.0397359Z" fill="#C1C6C6"/>
<mask id="mask0_0_1769" style="mask-type:alpha" maskUnits="userSpaceOnUse" x="0" y="0" width="8" height="8">
<path fill-rule="evenodd" clip-rule="evenodd" d="M7.37867 0.0397359L0.261174 3.21162C-0.135863 3.38879 -0.0634778 3.97326 0.36489 4.0478L3.11336 4.52801C3.29648 4.55988 3.43963 4.70303 3.47204 4.88615L3.95173 7.63561C4.02681 8.06343 4.61076 8.13581 4.78794 7.73879L7.96045 0.620959C8.12467 0.252563 7.74762 -0.125016 7.37867 0.0397359Z" fill="white"/>
</mask>
<g mask="url(#mask0_0_1769)">
<rect x="-46" y="-48" width="96" height="96" fill="#A6AAB1"/>
</g>
</svg>
