<svg width="35" height="42" viewBox="0 0 35 42" fill="none" xmlns="http://www.w3.org/2000/svg">
<g filter="url(#filter0_f_0_1787)">
<path fill-rule="evenodd" clip-rule="evenodd" d="M17.5 31C21.0899 31 24 30.3284 24 29.5C24 28.6716 21.0899 28 17.5 28C13.9101 28 11 28.6716 11 29.5C11 30.3284 13.9101 31 17.5 31Z" fill="#222834"/>
</g>
<path fill-rule="evenodd" clip-rule="evenodd" d="M16.8563 2H16.8549H16.8535C13.588 2.00141 10.4455 3.30341 8.23463 5.56923C6.06616 7.79418 4.9184 10.766 5.00452 13.9364C5.09346 17.3027 6.60828 20.1759 8.07793 22.5445C10.1264 25.8418 13.7292 28.9066 14.133 29.2448C14.901 29.8845 15.8652 30.234 16.8563 30.234C17.8459 30.234 18.8102 29.8845 19.5711 29.2504C19.9819 28.9066 23.5833 25.8418 25.6318 22.5431C27.0168 20.3182 28.6163 17.3295 28.7066 13.9364C28.7913 10.7645 27.6436 7.79418 25.4765 5.57064C23.2643 3.30341 20.1231 2.00141 16.8563 2ZM16.8563 16.1318C18.2751 16.1318 19.4257 14.9848 19.4257 13.5672C19.4257 12.1511 18.2751 11.0027 16.8563 11.0027C15.436 11.0027 14.2855 12.1511 14.2855 13.5672C14.2855 14.9848 15.436 16.1318 16.8563 16.1318ZM16.8549 4.81818C19.365 4.81959 21.7692 5.81018 23.452 7.53632C25.0855 9.21032 25.948 11.4564 25.8845 13.8603C25.8111 16.5742 24.4304 19.1331 23.2332 21.058C21.3725 24.0537 17.908 26.9649 17.7626 27.0875C17.5 27.3059 17.1782 27.4158 16.8563 27.4158C16.533 27.4158 16.2111 27.3059 15.9485 27.0875C15.8031 26.9649 12.3386 24.0537 10.4779 21.0594C9.20734 19.012 7.89863 16.5573 7.82663 13.8603C7.76169 11.4564 8.62569 9.21032 10.2577 7.53632C11.9419 5.81018 14.3462 4.81959 16.8549 4.81818Z" fill="white"/>
<path fill-rule="evenodd" clip-rule="evenodd" d="M16.8557 16.1322C15.4369 16.1322 14.2863 14.9852 14.2863 13.5676C14.2863 12.1515 15.4369 11.0017 16.8557 11.0017C18.2745 11.0017 19.4251 12.1515 19.4251 13.5676C19.4251 14.9852 18.2745 16.1322 16.8557 16.1322ZM23.4529 7.53533C21.7686 5.8106 19.3644 4.82001 16.8557 4.8186C14.347 4.82001 11.9413 5.8106 10.2585 7.53533C8.62509 9.21074 7.7625 11.4568 7.82603 13.8607C7.89803 16.5577 9.20673 19.0124 10.4773 21.0598C12.338 24.0541 15.8025 26.9639 15.9493 27.0865C16.2119 27.3063 16.5338 27.4162 16.8557 27.4162C17.1776 27.4162 17.4994 27.3063 17.762 27.0865C17.9089 26.9639 21.3719 24.0541 23.234 21.0584C24.4298 19.1336 25.8119 16.5732 25.8853 13.8607C25.9474 11.4568 25.0849 9.21074 23.4529 7.53533Z" fill="#FC1055"/>
<defs>
<filter id="filter0_f_0_1787" x="0.126873" y="17.1269" width="34.7463" height="24.7463" filterUnits="userSpaceOnUse" color-interpolation-filters="sRGB">
<feFlood flood-opacity="0" result="BackgroundImageFix"/>
<feBlend mode="normal" in="SourceGraphic" in2="BackgroundImageFix" result="shape"/>
<feGaussianBlur stdDeviation="5.43656" result="effect1_foregroundBlur_0_1787"/>
</filter>
</defs>
</svg>
