<svg width="16" height="16" viewBox="0 0 16 16" fill="none" xmlns="http://www.w3.org/2000/svg">
<path fill-rule="evenodd" clip-rule="evenodd" d="M10.7893 11.9954H5.21069C4.76532 11.9954 4.40272 11.6281 4.40272 11.1769V7.84359H11.5973V11.1769C11.5973 11.6281 11.2347 11.9954 10.7893 11.9954ZM10.6813 3.28529C10.6757 2.89732 10.3657 2.58325 9.98205 2.58325C9.5977 2.58325 9.287 2.89732 9.28209 3.28529H6.71791C6.713 2.89732 6.4023 2.58325 6.01795 2.58325C5.63431 2.58325 5.32431 2.89732 5.3187 3.28529H5.21069C3.99172 3.28529 3 4.29004 3 5.52501V11.1769C3 12.4118 3.99172 13.4166 5.21069 13.4166H10.7893C12.0083 13.4166 13 12.4118 13 11.1769V5.52501C13 4.29004 12.0083 3.28529 10.7893 3.28529H10.6813Z" fill="black"/>
<mask id="mask0_0_1801" style="mask-type:alpha" maskUnits="userSpaceOnUse" x="3" y="2" width="10" height="12">
<path fill-rule="evenodd" clip-rule="evenodd" d="M10.7893 11.9954H5.21069C4.76532 11.9954 4.40272 11.6281 4.40272 11.1769V7.84359H11.5973V11.1769C11.5973 11.6281 11.2347 11.9954 10.7893 11.9954ZM10.6813 3.28529C10.6757 2.89732 10.3657 2.58325 9.98205 2.58325C9.5977 2.58325 9.287 2.89732 9.28209 3.28529H6.71791C6.713 2.89732 6.4023 2.58325 6.01795 2.58325C5.63431 2.58325 5.32431 2.89732 5.3187 3.28529H5.21069C3.99172 3.28529 3 4.29004 3 5.52501V11.1769C3 12.4118 3.99172 13.4166 5.21069 13.4166H10.7893C12.0083 13.4166 13 12.4118 13 11.1769V5.52501C13 4.29004 12.0083 3.28529 10.7893 3.28529H10.6813Z" fill="white"/>
</mask>
<g mask="url(#mask0_0_1801)">
<rect x="-40" y="-40" width="96" height="96" fill="#373A42"/>
</g>
</svg>
