<svg width="16" height="16" viewBox="0 0 16 16" fill="none" xmlns="http://www.w3.org/2000/svg">
<path fill-rule="evenodd" clip-rule="evenodd" d="M5.65702 4.64126C5.37495 4.71102 5.17693 4.97097 5.17693 5.26983V7.9031V9.51639H4.78518C3.90194 9.51639 3.09634 10.1721 3.00873 11.0783C2.90758 12.121 3.69894 13 4.68902 13H5.48607C6.39281 13 7.12718 12.2422 7.12718 11.3081V10.9894V9.51639V7.41771L11.0498 6.45355V8.5772H10.7734C9.88944 8.5772 9.08455 9.23221 8.99623 10.1391C8.89508 11.1818 9.68643 12.0608 10.6765 12.0608H11.3589C12.2656 12.0608 13 11.303 13 10.3682V10.0495V8.5772V5.96817V3.64699C13 3.22843 12.6203 2.92001 12.2257 3.01841L5.65702 4.64126Z" fill="white"/>
<mask id="mask0_0_1810" style="mask-type:alpha" maskUnits="userSpaceOnUse" x="3" y="3" width="10" height="10">
<path fill-rule="evenodd" clip-rule="evenodd" d="M5.65702 4.64126C5.37495 4.71102 5.17693 4.97097 5.17693 5.26983V7.9031V9.51639H4.78518C3.90194 9.51639 3.09634 10.1721 3.00873 11.0783C2.90758 12.121 3.69894 13 4.68902 13H5.48607C6.39281 13 7.12718 12.2422 7.12718 11.3081V10.9894V9.51639V7.41771L11.0498 6.45355V8.5772H10.7734C9.88944 8.5772 9.08455 9.23221 8.99623 10.1391C8.89508 11.1818 9.68643 12.0608 10.6765 12.0608H11.3589C12.2656 12.0608 13 11.303 13 10.3682V10.0495V8.5772V5.96817V3.64699C13 3.22843 12.6203 2.92001 12.2257 3.01841L5.65702 4.64126Z" fill="white"/>
</mask>
<g mask="url(#mask0_0_1810)">
<rect x="-40" y="-40" width="96" height="96" fill="#373A42"/>
</g>
</svg>
