<svg width="16" height="16" viewBox="0 0 16 16" fill="none" xmlns="http://www.w3.org/2000/svg">
<path fill-rule="evenodd" clip-rule="evenodd" d="M7.7725 3.46454C8.91265 3.46454 9.84044 4.3916 9.84044 5.53248C9.84044 6.67336 8.91265 7.60042 7.7725 7.60042C6.63162 7.60042 5.70383 6.67336 5.70383 5.53248C5.70383 4.3916 6.63162 3.46454 7.7725 3.46454ZM11.305 5.53248C11.305 3.58464 9.72034 2 7.7725 2C5.82392 2 4.23929 3.58464 4.23929 5.53248C4.23929 6.48517 4.62227 7.34778 5.23811 7.98413C3.34152 8.75521 2 10.6159 2 12.7864C2 13.1393 2.2519 13.4425 2.59827 13.5069L4.22025 13.8086C5.39847 14.0283 6.58549 14.1381 7.7725 14.1381C8.95878 14.1381 10.1451 14.0283 11.3226 13.8086L12.946 13.5069C13.2931 13.4425 13.5443 13.1393 13.5443 12.7864C13.5443 10.6159 12.2027 8.75521 10.3069 7.98413C10.922 7.34778 11.305 6.48517 11.305 5.53248Z" fill="#ABABAB"/>
<mask id="mask0_0_1820" style="mask-type:alpha" maskUnits="userSpaceOnUse" x="2" y="2" width="12" height="13">
<path fill-rule="evenodd" clip-rule="evenodd" d="M7.7725 3.46454C8.91265 3.46454 9.84044 4.3916 9.84044 5.53248C9.84044 6.67336 8.91265 7.60042 7.7725 7.60042C6.63162 7.60042 5.70383 6.67336 5.70383 5.53248C5.70383 4.3916 6.63162 3.46454 7.7725 3.46454ZM11.305 5.53248C11.305 3.58464 9.72034 2 7.7725 2C5.82392 2 4.23929 3.58464 4.23929 5.53248C4.23929 6.48517 4.62227 7.34778 5.23811 7.98413C3.34152 8.75521 2 10.6159 2 12.7864C2 13.1393 2.2519 13.4425 2.59827 13.5069L4.22025 13.8086C5.39847 14.0283 6.58549 14.1381 7.7725 14.1381C8.95878 14.1381 10.1451 14.0283 11.3226 13.8086L12.946 13.5069C13.2931 13.4425 13.5443 13.1393 13.5443 12.7864C13.5443 10.6159 12.2027 8.75521 10.3069 7.98413C10.922 7.34778 11.305 6.48517 11.305 5.53248Z" fill="white"/>
</mask>
<g mask="url(#mask0_0_1820)">
<rect x="-40" y="-40" width="96" height="96" fill="#373A42"/>
</g>
</svg>
