<svg width="16" height="16" viewBox="0 0 16 16" fill="none" xmlns="http://www.w3.org/2000/svg">
<path fill-rule="evenodd" clip-rule="evenodd" d="M3.43791 9.33177C3.43791 7.53803 4.89706 6.07888 6.69007 6.07888C7.00269 6.07888 7.32305 6.0931 7.60963 6.21066C8.05257 6.39237 8.05257 6.93402 8.05257 6.93402L6.87603 8.11056C6.81453 8.10105 6.75376 8.09153 6.69007 8.09153C6.00625 8.09153 5.45056 8.64795 5.45056 9.33177C5.45056 10.0149 6.00625 10.5713 6.69007 10.5713C7.37388 10.5713 7.93031 10.0149 7.93031 9.33177C7.93031 9.26807 7.92079 9.20657 7.91127 9.14581L9.11564 7.94071L9.67938 8.06078C9.84997 8.46199 9.94222 8.88736 9.94222 9.33177C9.94222 11.1248 8.48307 12.5839 6.69007 12.5839C4.89706 12.5839 3.43791 11.1248 3.43791 9.33177ZM10.4188 4.15482L10.566 4.84816C10.626 5.13076 10.8471 5.35187 11.1305 5.4119L11.8231 5.55833L10.6187 6.76343L9.46121 6.51743L9.21448 5.35919L10.4188 4.15482ZM13.8123 5.64033C14.0019 5.44997 14.0722 5.17176 13.9961 4.91405C13.9199 4.65707 13.7091 4.46159 13.4462 4.40594L11.9 4.07795L11.5712 2.53167C11.5156 2.26883 11.3208 2.05798 11.0631 1.98184C10.8047 1.90569 10.5272 1.97598 10.3376 2.16633L7.89809 4.60509C7.85343 4.64975 7.81536 4.70026 7.78388 4.75444C7.42586 4.66878 7.06053 4.6146 6.69007 4.6146C4.08951 4.6146 1.97363 6.73048 1.97363 9.33177C1.97363 11.9323 4.08951 14.0482 6.69007 14.0482C9.29062 14.0482 11.4065 11.9323 11.4065 9.33177C11.4065 8.92983 11.3531 8.53813 11.2549 8.15815C11.2945 8.13179 11.3384 8.11422 11.3728 8.07981L13.8123 5.64033Z" fill="white"/>
<mask id="mask0_0_1829" style="mask-type:alpha" maskUnits="userSpaceOnUse" x="1" y="1" width="14" height="14">
<path fill-rule="evenodd" clip-rule="evenodd" d="M3.43791 9.33177C3.43791 7.53803 4.89706 6.07888 6.69007 6.07888C7.00269 6.07888 7.32305 6.0931 7.60963 6.21066C8.05257 6.39237 8.05257 6.93402 8.05257 6.93402L6.87603 8.11056C6.81453 8.10105 6.75376 8.09153 6.69007 8.09153C6.00625 8.09153 5.45056 8.64795 5.45056 9.33177C5.45056 10.0149 6.00625 10.5713 6.69007 10.5713C7.37388 10.5713 7.93031 10.0149 7.93031 9.33177C7.93031 9.26807 7.92079 9.20657 7.91127 9.14581L9.11564 7.94071L9.67938 8.06078C9.84997 8.46199 9.94222 8.88736 9.94222 9.33177C9.94222 11.1248 8.48307 12.5839 6.69007 12.5839C4.89706 12.5839 3.43791 11.1248 3.43791 9.33177ZM10.4188 4.15482L10.566 4.84816C10.626 5.13076 10.8471 5.35187 11.1305 5.4119L11.8231 5.55833L10.6187 6.76343L9.46121 6.51743L9.21448 5.35919L10.4188 4.15482ZM13.8123 5.64033C14.0019 5.44997 14.0722 5.17176 13.9961 4.91405C13.9199 4.65707 13.7091 4.46159 13.4462 4.40594L11.9 4.07795L11.5712 2.53167C11.5156 2.26883 11.3208 2.05798 11.0631 1.98184C10.8047 1.90569 10.5272 1.97598 10.3376 2.16633L7.89809 4.60509C7.85343 4.64975 7.81536 4.70026 7.78388 4.75444C7.42586 4.66878 7.06053 4.6146 6.69007 4.6146C4.08951 4.6146 1.97363 6.73048 1.97363 9.33177C1.97363 11.9323 4.08951 14.0482 6.69007 14.0482C9.29062 14.0482 11.4065 11.9323 11.4065 9.33177C11.4065 8.92983 11.3531 8.53813 11.2549 8.15815C11.2945 8.13179 11.3384 8.11422 11.3728 8.07981L13.8123 5.64033Z" fill="white"/>
</mask>
<g mask="url(#mask0_0_1829)">
<rect x="-40" y="-40" width="96" height="96" fill="#373A42"/>
</g>
</svg>
