<svg width="16" height="16" viewBox="0 0 16 16" fill="none" xmlns="http://www.w3.org/2000/svg">
<path fill-rule="evenodd" clip-rule="evenodd" d="M8.01757 8.80059L7.23586 8.23773C6.91204 8.00516 6.83936 7.55455 7.07193 7.23153C7.3045 6.9077 7.75511 6.83422 8.07813 7.0676L8.85984 7.63046C9.18366 7.86303 9.25715 8.31364 9.02377 8.63666C8.79119 8.95968 8.34058 9.03316 8.01757 8.80059ZM10.9667 9.14703L11.3576 9.42886L13.5274 6.4151C13.7342 6.12762 13.6696 5.72627 13.3813 5.51953L12.472 4.86381C12.2588 4.71118 11.964 4.68292 11.7517 4.83635C11.3237 5.14564 10.7293 5.1626 10.2779 4.83716C9.82647 4.51172 9.65365 3.9424 9.81112 3.4393C9.88946 3.18896 9.76913 2.91843 9.55675 2.765L8.64664 2.11008C8.35916 1.90254 7.95781 1.96795 7.75027 2.25544L5.5812 5.2692L5.97205 5.55103C6.29507 5.7836 6.36856 6.23421 6.13598 6.55723C5.90341 6.88025 5.4528 6.95373 5.12898 6.72116L4.73812 6.43933L2.47296 9.58472C2.26623 9.87301 2.33083 10.2736 2.61912 10.4811L3.52842 11.136C3.74161 11.2894 4.03637 11.3177 4.24875 11.1643C4.67675 10.855 5.2711 10.838 5.72252 11.1635C6.17394 11.4889 6.34675 12.0574 6.18928 12.5613C6.11095 12.8109 6.23128 13.0822 6.44366 13.2356L7.35376 13.8905C7.64125 14.0973 8.0426 14.0327 8.25014 13.7444L10.5145 10.599L10.1236 10.3172C9.80063 10.0846 9.72714 9.63398 9.95971 9.31096C10.1923 8.98794 10.6429 8.91445 10.9667 9.14703Z" fill="#C1C1C1"/>
<mask id="mask0_0_1840" style="mask-type:alpha" maskUnits="userSpaceOnUse" x="2" y="1" width="12" height="14">
<path fill-rule="evenodd" clip-rule="evenodd" d="M8.01757 8.80059L7.23586 8.23773C6.91204 8.00516 6.83936 7.55455 7.07193 7.23153C7.3045 6.9077 7.75511 6.83422 8.07813 7.0676L8.85984 7.63046C9.18366 7.86303 9.25715 8.31364 9.02377 8.63666C8.79119 8.95968 8.34058 9.03316 8.01757 8.80059ZM10.9667 9.14703L11.3576 9.42886L13.5274 6.4151C13.7342 6.12762 13.6696 5.72627 13.3813 5.51953L12.472 4.86381C12.2588 4.71118 11.964 4.68292 11.7517 4.83635C11.3237 5.14564 10.7293 5.1626 10.2779 4.83716C9.82647 4.51172 9.65365 3.9424 9.81112 3.4393C9.88946 3.18896 9.76913 2.91843 9.55675 2.765L8.64664 2.11008C8.35916 1.90254 7.95781 1.96795 7.75027 2.25544L5.5812 5.2692L5.97205 5.55103C6.29507 5.7836 6.36856 6.23421 6.13598 6.55723C5.90341 6.88025 5.4528 6.95373 5.12898 6.72116L4.73812 6.43933L2.47296 9.58472C2.26623 9.87301 2.33083 10.2736 2.61912 10.4811L3.52842 11.136C3.74161 11.2894 4.03637 11.3177 4.24875 11.1643C4.67675 10.855 5.2711 10.838 5.72252 11.1635C6.17394 11.4889 6.34675 12.0574 6.18928 12.5613C6.11095 12.8109 6.23128 13.0822 6.44366 13.2356L7.35376 13.8905C7.64125 14.0973 8.0426 14.0327 8.25014 13.7444L10.5145 10.599L10.1236 10.3172C9.80063 10.0846 9.72714 9.63398 9.95971 9.31096C10.1923 8.98794 10.6429 8.91445 10.9667 9.14703Z" fill="white"/>
</mask>
<g mask="url(#mask0_0_1840)">
<rect x="-40" y="-40" width="96" height="96" fill="#373A42"/>
</g>
</svg>
