<svg width="16" height="16" viewBox="0 0 16 16" fill="none" xmlns="http://www.w3.org/2000/svg">
<path fill-rule="evenodd" clip-rule="evenodd" d="M7.9998 8.04039C7.3126 8.04039 6.75551 7.48331 6.75551 6.7961C6.75551 6.1089 7.3126 5.55259 7.9998 5.55259C8.68701 5.55259 9.24409 6.1089 9.24409 6.7961C9.24409 7.48331 8.68701 8.04039 7.9998 8.04039ZM7.9998 2.73755C5.67874 2.73833 3.7301 4.48828 3.79555 6.93791C3.82827 8.14324 4.39782 9.32754 5.14269 10.5274C5.69899 11.4265 6.55527 12.328 7.1856 12.9342C7.64062 13.3721 8.35899 13.3721 8.81401 12.9342C9.44433 12.328 10.3006 11.4265 10.8577 10.5274C11.6018 9.32754 12.1713 8.14324 12.2041 6.93791C12.2695 4.48828 10.3209 2.73833 7.9998 2.73755Z" fill="black"/>
<mask id="mask0_0_1849" style="mask-type:alpha" maskUnits="userSpaceOnUse" x="3" y="2" width="10" height="12">
<path fill-rule="evenodd" clip-rule="evenodd" d="M7.9998 8.04039C7.3126 8.04039 6.75551 7.48331 6.75551 6.7961C6.75551 6.1089 7.3126 5.55259 7.9998 5.55259C8.68701 5.55259 9.24409 6.1089 9.24409 6.7961C9.24409 7.48331 8.68701 8.04039 7.9998 8.04039ZM7.9998 2.73755C5.67874 2.73833 3.7301 4.48828 3.79555 6.93791C3.82827 8.14324 4.39782 9.32754 5.14269 10.5274C5.69899 11.4265 6.55527 12.328 7.1856 12.9342C7.64062 13.3721 8.35899 13.3721 8.81401 12.9342C9.44433 12.328 10.3006 11.4265 10.8577 10.5274C11.6018 9.32754 12.1713 8.14324 12.2041 6.93791C12.2695 4.48828 10.3209 2.73833 7.9998 2.73755Z" fill="white"/>
</mask>
<g mask="url(#mask0_0_1849)">
<rect x="-40" y="-40" width="96" height="96" fill="#373A42"/>
</g>
</svg>
