<svg width="24" height="24" viewBox="0 0 24 24" fill="none" xmlns="http://www.w3.org/2000/svg">
<path fill-rule="evenodd" clip-rule="evenodd" d="M16.1021 21.0097H18.1251C19.2331 21.0097 20.1351 20.1087 20.1351 19.0007L20.2101 12.3537C21.0351 12.3277 21.7511 11.8077 22.0331 11.0297C22.3141 10.2517 22.0961 9.39269 21.4771 8.84369L13.8371 2.82769C12.5971 1.72569 10.7261 1.72569 9.48714 2.82569L2.67714 8.84369C2.05714 9.39269 1.84014 10.2517 2.12114 11.0297C2.40314 11.8077 3.11914 12.3277 4.01914 12.3607V19.0007C4.01914 20.1087 4.92114 21.0097 6.02914 21.0097H9.73914C10.9211 21.0097 11.8831 20.0487 11.8831 18.8667V15.5957C11.8831 15.2157 12.1921 14.9057 12.5731 14.9057H13.2681C13.6481 14.9057 13.9581 15.2157 13.9581 15.5957V18.8667C13.9581 20.0487 14.9201 21.0097 16.1021 21.0097Z" fill="#FC1055"/>
<mask id="mask0_0_1561" style="mask-type:alpha" maskUnits="userSpaceOnUse" x="2" y="2" width="21" height="20">
<path fill-rule="evenodd" clip-rule="evenodd" d="M16.1021 21.0097H18.1251C19.2331 21.0097 20.1351 20.1087 20.1351 19.0007L20.2101 12.3537C21.0351 12.3277 21.7511 11.8077 22.0331 11.0297C22.3141 10.2517 22.0961 9.39269 21.4771 8.84369L13.8371 2.82769C12.5971 1.72569 10.7261 1.72569 9.48714 2.82569L2.67714 8.84369C2.05714 9.39269 1.84014 10.2517 2.12114 11.0297C2.40314 11.8077 3.11914 12.3277 4.01914 12.3607V19.0007C4.01914 20.1087 4.92114 21.0097 6.02914 21.0097H9.73914C10.9211 21.0097 11.8831 20.0487 11.8831 18.8667V15.5957C11.8831 15.2157 12.1921 14.9057 12.5731 14.9057H13.2681C13.6481 14.9057 13.9581 15.2157 13.9581 15.5957V18.8667C13.9581 20.0487 14.9201 21.0097 16.1021 21.0097Z" fill="white"/>
</mask>
<g mask="url(#mask0_0_1561)">
<rect x="-39.8027" y="-37.7204" width="96" height="96" fill="#FC1055"/>
<path fill-rule="evenodd" clip-rule="evenodd" d="M8.54677 13.2968C7.74377 13.2968 7.09277 12.6458 7.09277 11.8428C7.09277 11.0398 7.74377 10.3888 8.54677 10.3888C9.34977 10.3888 10.0008 11.0398 10.0008 11.8428C10.0008 12.6458 9.34977 13.2968 8.54677 13.2968Z" fill="white"/>
</g>
</svg>
