<svg width="24" height="24" viewBox="0 0 24 24" fill="none" xmlns="http://www.w3.org/2000/svg">
<path fill-rule="evenodd" clip-rule="evenodd" d="M13.2681 12.9048H12.5731C11.0901 12.9048 9.88314 14.1117 9.88314 15.5947V18.8657C9.88314 18.9447 9.81814 19.0088 9.73914 19.0088L6.01914 18.9998V12.3598C6.01914 11.2698 5.13614 10.3888 4.00314 10.3398L10.8131 4.32175C11.2961 3.89275 12.0241 3.89175 12.5541 4.35975L20.1561 10.3447L20.1471 10.3538C19.0181 10.3888 18.1351 11.2698 18.1351 12.3598L18.1251 19.0088H16.1021C16.0221 19.0088 15.9581 18.9447 15.9581 18.8657V15.5947C15.9581 14.1117 14.7521 12.9048 13.2681 12.9048ZM16.1021 21.0088H18.1251C19.2331 21.0088 20.1351 20.1077 20.1351 18.9998L20.2101 12.3527C21.0351 12.3267 21.7511 11.8068 22.0331 11.0288C22.3141 10.2508 22.0961 9.39175 21.4771 8.84275L13.8371 2.82675C12.5971 1.72475 10.7261 1.72475 9.48714 2.82475L2.67714 8.84275C2.05714 9.39175 1.84014 10.2508 2.12114 11.0288C2.40314 11.8068 3.11914 12.3267 4.01914 12.3597V18.9998C4.01914 20.1077 4.92114 21.0088 6.02914 21.0088H9.73914C10.9211 21.0088 11.8831 20.0477 11.8831 18.8657V15.5948C11.8831 15.2148 12.1921 14.9047 12.5731 14.9047H13.2681C13.6481 14.9047 13.9581 15.2148 13.9581 15.5948V18.8657C13.9581 20.0477 14.9201 21.0088 16.1021 21.0088ZM7.09284 11.8419C7.09284 12.6448 7.74384 13.2958 8.54684 13.2958C9.34984 13.2958 10.0008 12.6448 10.0008 11.8419C10.0008 11.0388 9.34984 10.3878 8.54684 10.3878C7.74384 10.3878 7.09284 11.0388 7.09284 11.8419Z" fill="#FC1055"/>
<mask id="mask0_0_1576" style="mask-type:alpha" maskUnits="userSpaceOnUse" x="2" y="2" width="21" height="20">
<path fill-rule="evenodd" clip-rule="evenodd" d="M13.2681 12.9048H12.5731C11.0901 12.9048 9.88314 14.1117 9.88314 15.5947V18.8657C9.88314 18.9447 9.81814 19.0088 9.73914 19.0088L6.01914 18.9998V12.3598C6.01914 11.2698 5.13614 10.3888 4.00314 10.3398L10.8131 4.32175C11.2961 3.89275 12.0241 3.89175 12.5541 4.35975L20.1561 10.3447L20.1471 10.3538C19.0181 10.3888 18.1351 11.2698 18.1351 12.3598L18.1251 19.0088H16.1021C16.0221 19.0088 15.9581 18.9447 15.9581 18.8657V15.5947C15.9581 14.1117 14.7521 12.9048 13.2681 12.9048ZM16.1021 21.0088H18.1251C19.2331 21.0088 20.1351 20.1077 20.1351 18.9998L20.2101 12.3527C21.0351 12.3267 21.7511 11.8068 22.0331 11.0288C22.3141 10.2508 22.0961 9.39175 21.4771 8.84275L13.8371 2.82675C12.5971 1.72475 10.7261 1.72475 9.48714 2.82475L2.67714 8.84275C2.05714 9.39175 1.84014 10.2508 2.12114 11.0288C2.40314 11.8068 3.11914 12.3267 4.01914 12.3597V18.9998C4.01914 20.1077 4.92114 21.0088 6.02914 21.0088H9.73914C10.9211 21.0088 11.8831 20.0477 11.8831 18.8657V15.5948C11.8831 15.2148 12.1921 14.9047 12.5731 14.9047H13.2681C13.6481 14.9047 13.9581 15.2148 13.9581 15.5948V18.8657C13.9581 20.0477 14.9201 21.0088 16.1021 21.0088ZM7.09284 11.8419C7.09284 12.6448 7.74384 13.2958 8.54684 13.2958C9.34984 13.2958 10.0008 12.6448 10.0008 11.8419C10.0008 11.0388 9.34984 10.3878 8.54684 10.3878C7.74384 10.3878 7.09284 11.0388 7.09284 11.8419Z" fill="white"/>
</mask>
<g mask="url(#mask0_0_1576)">
<rect x="-39.8027" y="-37.7213" width="96" height="96" fill="#373A42"/>
</g>
</svg>
