<svg width="24" height="24" viewBox="0 0 24 24" fill="none" xmlns="http://www.w3.org/2000/svg">
<path fill-rule="evenodd" clip-rule="evenodd" d="M6.91468 15.4315C5.91037 14.4272 5.35753 13.0917 5.35753 11.6713C5.35753 10.2508 5.91037 8.9153 6.91468 7.91099C7.95199 6.87486 9.31347 6.3562 10.6738 6.3562C12.0364 6.3562 13.3979 6.87486 14.4352 7.91099C16.5075 9.98444 16.5075 13.3581 14.4352 15.4315C13.4297 16.4358 12.0954 16.9887 10.6749 16.9887C9.25453 16.9887 7.92017 16.4358 6.91468 15.4315ZM19.6583 18.9878L16.8635 16.1942C19.0583 13.1942 18.8096 8.95184 16.102 6.24422C13.1067 3.25134 8.23843 3.25252 5.2479 6.24422C3.79802 7.6941 3 9.62138 3 11.6713C3 13.7211 3.79802 15.6484 5.2479 17.0983C6.74376 18.5953 8.70876 19.3427 10.6738 19.3427C12.2674 19.3427 13.8552 18.8429 15.1979 17.8609L17.9904 20.6546C18.2214 20.8845 18.5232 21 18.8249 21C19.1255 21 19.4273 20.8845 19.6583 20.6546C20.118 20.1937 20.118 19.4476 19.6583 18.9878Z" fill="#C2C6CE"/>
<mask id="mask0_0_1600" style="mask-type:alpha" maskUnits="userSpaceOnUse" x="3" y="4" width="18" height="17">
<path fill-rule="evenodd" clip-rule="evenodd" d="M6.91468 15.4315C5.91037 14.4272 5.35753 13.0917 5.35753 11.6713C5.35753 10.2508 5.91037 8.9153 6.91468 7.91099C7.95199 6.87486 9.31347 6.3562 10.6738 6.3562C12.0364 6.3562 13.3979 6.87486 14.4352 7.91099C16.5075 9.98444 16.5075 13.3581 14.4352 15.4315C13.4297 16.4358 12.0954 16.9887 10.6749 16.9887C9.25453 16.9887 7.92017 16.4358 6.91468 15.4315ZM19.6583 18.9878L16.8635 16.1942C19.0583 13.1942 18.8096 8.95184 16.102 6.24422C13.1067 3.25134 8.23843 3.25252 5.2479 6.24422C3.79802 7.6941 3 9.62138 3 11.6713C3 13.7211 3.79802 15.6484 5.2479 17.0983C6.74376 18.5953 8.70876 19.3427 10.6738 19.3427C12.2674 19.3427 13.8552 18.8429 15.1979 17.8609L17.9904 20.6546C18.2214 20.8845 18.5232 21 18.8249 21C19.1255 21 19.4273 20.8845 19.6583 20.6546C20.118 20.1937 20.118 19.4476 19.6583 18.9878Z" fill="white"/>
</mask>
<g mask="url(#mask0_0_1600)">
<rect x="-39.8027" y="-37.7213" width="96" height="96" fill="#373A42"/>
</g>
</svg>
