<svg width="24" height="24" viewBox="0 0 24 24" fill="none" xmlns="http://www.w3.org/2000/svg">
<path fill-rule="evenodd" clip-rule="evenodd" d="M16.2855 14.8705L16.6005 15.1855L21.1185 10.6675L19.5615 9.1115C18.4045 9.6765 16.9685 9.4795 16.0105 8.5215C15.4255 7.9375 15.1035 7.1605 15.1035 6.3335C15.1035 5.8525 15.2125 5.3885 15.4195 4.9695L13.8635 3.4145L9.34651 7.9315L9.66151 8.2475C10.0515 8.6375 10.0515 9.2705 9.66151 9.6615C9.46551 9.8565 9.20951 9.9545 8.95451 9.9545C8.69851 9.9545 8.44151 9.8565 8.24651 9.6615L7.93151 9.3455L3.41351 13.8635L4.97051 15.4195C6.12551 14.8535 7.56251 15.0515 8.52151 16.0095C9.48051 16.9685 9.67751 18.4055 9.11151 19.5605L10.6685 21.1175L15.1855 16.6005L14.8705 16.2845C14.4805 15.8935 14.4805 15.2605 14.8715 14.8705C15.2615 14.4805 15.8955 14.4795 16.2855 14.8705ZM20.3855 7.1075L23.2395 9.9605C23.6295 10.3515 23.6295 10.9845 23.2395 11.3745L17.3085 17.3065C17.3075 17.3065 17.3075 17.3075 17.3075 17.3075C17.3065 17.3085 17.3065 17.3085 17.3055 17.3085L11.3755 23.2385C11.1805 23.4345 10.9245 23.5315 10.6685 23.5315C10.4125 23.5315 10.1565 23.4345 9.96151 23.2385L7.10751 20.3855C6.71751 19.9945 6.71751 19.3615 7.10751 18.9715C7.53451 18.5445 7.53451 17.8505 7.10751 17.4235C6.68251 16.9975 5.98851 16.9975 5.56051 17.4235C5.16951 17.8145 4.53751 17.8145 4.14651 17.4235L1.29251 14.5705C1.10551 14.3825 0.999512 14.1285 0.999512 13.8635C0.999512 13.5985 1.10551 13.3435 1.29251 13.1565L7.22451 7.2245H7.22551V7.2235L13.1565 1.2925C13.5475 0.9025 14.1805 0.9025 14.5705 1.2925L17.4245 4.1465C17.6115 4.3335 17.7175 4.5885 17.7175 4.8535C17.7175 5.1195 17.6115 5.3735 17.4245 5.5605C17.2175 5.7675 17.1035 6.0415 17.1035 6.3335C17.1035 6.6255 17.2175 6.9005 17.4245 7.1065C17.8505 7.5335 18.5445 7.5355 18.9715 7.1075C19.3625 6.7165 19.9955 6.7165 20.3855 7.1075ZM10.7348 10.7343C11.1258 10.3433 11.7578 10.3433 12.1488 10.7343L13.7968 12.3833C14.1878 12.7743 14.1878 13.4073 13.7968 13.7973C13.6018 13.9923 13.3458 14.0903 13.0898 14.0903C12.8348 14.0903 12.5788 13.9923 12.3828 13.7973L10.7348 12.1483C10.3438 11.7573 10.3438 11.1243 10.7348 10.7343Z" fill="#355F55"/>
<mask id="mask0_0_1623" style="mask-type:alpha" maskUnits="userSpaceOnUse" x="0" y="1" width="24" height="23">
<path fill-rule="evenodd" clip-rule="evenodd" d="M16.2855 14.8705L16.6005 15.1855L21.1185 10.6675L19.5615 9.1115C18.4045 9.6765 16.9685 9.4795 16.0105 8.5215C15.4255 7.9375 15.1035 7.1605 15.1035 6.3335C15.1035 5.8525 15.2125 5.3885 15.4195 4.9695L13.8635 3.4145L9.34651 7.9315L9.66151 8.2475C10.0515 8.6375 10.0515 9.2705 9.66151 9.6615C9.46551 9.8565 9.20951 9.9545 8.95451 9.9545C8.69851 9.9545 8.44151 9.8565 8.24651 9.6615L7.93151 9.3455L3.41351 13.8635L4.97051 15.4195C6.12551 14.8535 7.56251 15.0515 8.52151 16.0095C9.48051 16.9685 9.67751 18.4055 9.11151 19.5605L10.6685 21.1175L15.1855 16.6005L14.8705 16.2845C14.4805 15.8935 14.4805 15.2605 14.8715 14.8705C15.2615 14.4805 15.8955 14.4795 16.2855 14.8705ZM20.3855 7.1075L23.2395 9.9605C23.6295 10.3515 23.6295 10.9845 23.2395 11.3745L17.3085 17.3065C17.3075 17.3065 17.3075 17.3075 17.3075 17.3075C17.3065 17.3085 17.3065 17.3085 17.3055 17.3085L11.3755 23.2385C11.1805 23.4345 10.9245 23.5315 10.6685 23.5315C10.4125 23.5315 10.1565 23.4345 9.96151 23.2385L7.10751 20.3855C6.71751 19.9945 6.71751 19.3615 7.10751 18.9715C7.53451 18.5445 7.53451 17.8505 7.10751 17.4235C6.68251 16.9975 5.98851 16.9975 5.56051 17.4235C5.16951 17.8145 4.53751 17.8145 4.14651 17.4235L1.29251 14.5705C1.10551 14.3825 0.999512 14.1285 0.999512 13.8635C0.999512 13.5985 1.10551 13.3435 1.29251 13.1565L7.22451 7.2245H7.22551V7.2235L13.1565 1.2925C13.5475 0.9025 14.1805 0.9025 14.5705 1.2925L17.4245 4.1465C17.6115 4.3335 17.7175 4.5885 17.7175 4.8535C17.7175 5.1195 17.6115 5.3735 17.4245 5.5605C17.2175 5.7675 17.1035 6.0415 17.1035 6.3335C17.1035 6.6255 17.2175 6.9005 17.4245 7.1065C17.8505 7.5335 18.5445 7.5355 18.9715 7.1075C19.3625 6.7165 19.9955 6.7165 20.3855 7.1075ZM10.7348 10.7343C11.1258 10.3433 11.7578 10.3433 12.1488 10.7343L13.7968 12.3833C14.1878 12.7743 14.1878 13.4073 13.7968 13.7973C13.6018 13.9923 13.3458 14.0903 13.0898 14.0903C12.8348 14.0903 12.5788 13.9923 12.3828 13.7973L10.7348 12.1483C10.3438 11.7573 10.3438 11.1243 10.7348 10.7343Z" fill="white"/>
</mask>
<g mask="url(#mask0_0_1623)">
<rect x="-39.8027" y="-37.7213" width="96" height="96" fill="#373A42"/>
</g>
</svg>
