<svg width="24" height="24" viewBox="0 0 24 24" fill="none" xmlns="http://www.w3.org/2000/svg">
<path fill-rule="evenodd" clip-rule="evenodd" d="M20.3855 7.1075L23.2395 9.9605C23.6295 10.3515 23.6295 10.9845 23.2395 11.3745L18.0143 16.6006L17.7072 16.2933C17.3162 15.9023 16.6842 15.9023 16.2932 16.2933C15.9022 16.6833 15.9022 17.3162 16.2932 17.7073L16.5999 18.0141L11.3755 23.2385C11.1805 23.4345 10.9245 23.5315 10.6685 23.5315C10.4125 23.5315 10.1565 23.4345 9.96151 23.2385L7.10751 20.3855C6.71751 19.9945 6.71751 19.3615 7.10751 18.9715C7.53451 18.5445 7.53451 17.8505 7.10751 17.4235C6.68251 16.9975 5.98851 16.9975 5.56051 17.4235C5.16951 17.8145 4.53751 17.8145 4.14651 17.4235L1.29251 14.5705C1.10551 14.3825 0.999512 14.1285 0.999512 13.8635C0.999512 13.5985 1.10551 13.3435 1.29251 13.1565L6.51709 7.93192L6.94116 8.35625C7.13716 8.55125 7.39316 8.64925 7.64816 8.64925C7.90416 8.64925 8.16016 8.55125 8.35516 8.35625C8.74616 7.96625 8.74616 7.33325 8.35516 6.94225L7.93109 6.51792L13.1565 1.2925C13.5475 0.9025 14.1805 0.9025 14.5705 1.2925L17.4245 4.1465C17.6115 4.3335 17.7175 4.5885 17.7175 4.8535C17.7175 5.1195 17.6115 5.3735 17.4245 5.5605C17.2175 5.7675 17.1035 6.0415 17.1035 6.3335C17.1035 6.6255 17.2175 6.9005 17.4245 7.1065C17.8505 7.5335 18.5445 7.5355 18.9715 7.1075C19.3625 6.7165 19.9955 6.7165 20.3855 7.1075ZM10.7348 10.7343C11.1258 10.3433 11.7578 10.3433 12.1488 10.7343L13.7968 12.3833C14.1878 12.7743 14.1878 13.4073 13.7968 13.7973C13.6018 13.9923 13.3458 14.0903 13.0898 14.0903C12.8348 14.0903 12.5788 13.9923 12.3828 13.7973L10.7348 12.1483C10.3438 11.7573 10.3438 11.1243 10.7348 10.7343Z" fill="#355F55"/>
<mask id="mask0_0_1610" style="mask-type:alpha" maskUnits="userSpaceOnUse" x="0" y="1" width="24" height="23">
<path fill-rule="evenodd" clip-rule="evenodd" d="M20.3855 7.1075L23.2395 9.9605C23.6295 10.3515 23.6295 10.9845 23.2395 11.3745L18.0143 16.6006L17.7072 16.2933C17.3162 15.9023 16.6842 15.9023 16.2932 16.2933C15.9022 16.6833 15.9022 17.3162 16.2932 17.7073L16.5999 18.0141L11.3755 23.2385C11.1805 23.4345 10.9245 23.5315 10.6685 23.5315C10.4125 23.5315 10.1565 23.4345 9.96151 23.2385L7.10751 20.3855C6.71751 19.9945 6.71751 19.3615 7.10751 18.9715C7.53451 18.5445 7.53451 17.8505 7.10751 17.4235C6.68251 16.9975 5.98851 16.9975 5.56051 17.4235C5.16951 17.8145 4.53751 17.8145 4.14651 17.4235L1.29251 14.5705C1.10551 14.3825 0.999512 14.1285 0.999512 13.8635C0.999512 13.5985 1.10551 13.3435 1.29251 13.1565L6.51709 7.93192L6.94116 8.35625C7.13716 8.55125 7.39316 8.64925 7.64816 8.64925C7.90416 8.64925 8.16016 8.55125 8.35516 8.35625C8.74616 7.96625 8.74616 7.33325 8.35516 6.94225L7.93109 6.51792L13.1565 1.2925C13.5475 0.9025 14.1805 0.9025 14.5705 1.2925L17.4245 4.1465C17.6115 4.3335 17.7175 4.5885 17.7175 4.8535C17.7175 5.1195 17.6115 5.3735 17.4245 5.5605C17.2175 5.7675 17.1035 6.0415 17.1035 6.3335C17.1035 6.6255 17.2175 6.9005 17.4245 7.1065C17.8505 7.5335 18.5445 7.5355 18.9715 7.1075C19.3625 6.7165 19.9955 6.7165 20.3855 7.1075ZM10.7348 10.7343C11.1258 10.3433 11.7578 10.3433 12.1488 10.7343L13.7968 12.3833C14.1878 12.7743 14.1878 13.4073 13.7968 13.7973C13.6018 13.9923 13.3458 14.0903 13.0898 14.0903C12.8348 14.0903 12.5788 13.9923 12.3828 13.7973L10.7348 12.1483C10.3438 11.7573 10.3438 11.1243 10.7348 10.7343Z" fill="white"/>
</mask>
<g mask="url(#mask0_0_1610)">
<rect x="-39.8027" y="-37.7213" width="96" height="96" fill="#FC1055"/>
</g>
</svg>
