<svg width="24" height="24" viewBox="0 0 24 24" fill="none" xmlns="http://www.w3.org/2000/svg">
<path fill-rule="evenodd" clip-rule="evenodd" d="M12.3709 15.9974C10.5124 15.9974 8.7824 16.7412 7.78281 17.9005C9.02475 18.8912 10.5939 19.4876 12.3027 19.4876C14.0473 19.4876 15.65 18.8689 16.9042 17.8402C15.8968 16.7167 14.1969 15.9974 12.3709 15.9974ZM19.569 12.2213C19.569 8.21514 16.3089 4.95503 12.3027 4.95503C8.29545 4.95503 5.03645 8.21514 5.03645 12.2213C5.03645 13.7134 5.48878 15.1017 6.26388 16.2565C7.69904 14.7141 9.93611 13.7637 12.3709 13.7637C14.7598 13.7637 16.9589 14.6762 18.3974 16.1649C19.1357 15.028 19.569 13.6755 19.569 12.2213ZM2.80273 12.2213C2.80273 6.98325 7.06355 2.72131 12.3027 2.72131C17.5408 2.72131 21.8027 6.98325 21.8027 12.2213C21.8027 17.4594 17.5408 21.7213 12.3027 21.7213C7.06355 21.7213 2.80273 17.4594 2.80273 12.2213ZM14.3028 9.99742C14.3028 11.1031 13.4071 11.9977 12.3025 11.9977C11.1979 11.9977 10.3022 11.1031 10.3022 9.99742C10.3022 8.89397 11.1979 7.99825 12.3025 7.99825C13.4071 7.99825 14.3028 8.89397 14.3028 9.99742Z" fill="#C2C6CE"/>
<mask id="mask0_0_1649" style="mask-type:alpha" maskUnits="userSpaceOnUse" x="2" y="2" width="20" height="20">
<path fill-rule="evenodd" clip-rule="evenodd" d="M12.3709 15.9974C10.5124 15.9974 8.7824 16.7412 7.78281 17.9005C9.02475 18.8912 10.5939 19.4876 12.3027 19.4876C14.0473 19.4876 15.65 18.8689 16.9042 17.8402C15.8968 16.7167 14.1969 15.9974 12.3709 15.9974ZM19.569 12.2213C19.569 8.21514 16.3089 4.95503 12.3027 4.95503C8.29545 4.95503 5.03645 8.21514 5.03645 12.2213C5.03645 13.7134 5.48878 15.1017 6.26388 16.2565C7.69904 14.7141 9.93611 13.7637 12.3709 13.7637C14.7598 13.7637 16.9589 14.6762 18.3974 16.1649C19.1357 15.028 19.569 13.6755 19.569 12.2213ZM2.80273 12.2213C2.80273 6.98325 7.06355 2.72131 12.3027 2.72131C17.5408 2.72131 21.8027 6.98325 21.8027 12.2213C21.8027 17.4594 17.5408 21.7213 12.3027 21.7213C7.06355 21.7213 2.80273 17.4594 2.80273 12.2213ZM14.3028 9.99742C14.3028 11.1031 13.4071 11.9977 12.3025 11.9977C11.1979 11.9977 10.3022 11.1031 10.3022 9.99742C10.3022 8.89397 11.1979 7.99825 12.3025 7.99825C13.4071 7.99825 14.3028 8.89397 14.3028 9.99742Z" fill="white"/>
</mask>
<g mask="url(#mask0_0_1649)">
<rect x="-40" y="-38" width="96" height="96" fill="#373A42"/>
</g>
</svg>
