<svg width="40" height="40" viewBox="0 0 40 40" fill="none" xmlns="http://www.w3.org/2000/svg">
<path opacity="0.638811" fill-rule="evenodd" clip-rule="evenodd" d="M20 40C31.0457 40 40 31.0457 40 20C40 8.9543 31.0457 0 20 0C8.9543 0 0 8.9543 0 20C0 31.0457 8.9543 40 20 40Z" fill="#FFD6E2"/>
<path fill-rule="evenodd" clip-rule="evenodd" d="M20.5292 21.3316L19.2144 20.3953C18.6697 20.0084 18.5475 19.2588 18.9387 18.7214C19.3299 18.1828 20.0878 18.0605 20.6311 18.4487L21.9459 19.3851C22.4905 19.772 22.6141 20.5216 22.2216 21.0589C21.8304 21.5963 21.0725 21.7185 20.5292 21.3316ZM25.4896 21.9079L26.147 22.3768L29.7966 17.3633C30.1444 16.8851 30.0357 16.2174 29.5508 15.8735L28.0214 14.7827C27.6628 14.5288 27.167 14.4818 26.8098 14.737C26.0899 15.2515 25.0903 15.2797 24.331 14.7384C23.5717 14.197 23.281 13.2499 23.5459 12.413C23.6777 11.9965 23.4753 11.5465 23.1181 11.2913L21.5873 10.2018C21.1037 9.85655 20.4287 9.96537 20.0796 10.4436L16.4313 15.4571L17.0887 15.9259C17.632 16.3128 17.7556 17.0624 17.3644 17.5997C16.9733 18.1371 16.2154 18.2593 15.6707 17.8724L15.0133 17.4036L11.2034 22.636C10.8556 23.1156 10.9643 23.7819 11.4492 24.1272L12.9786 25.2166C13.3372 25.4719 13.833 25.5189 14.1902 25.2637C14.9101 24.7491 15.9097 24.7209 16.669 25.2623C17.4283 25.8037 17.719 26.7494 17.4541 27.5877C17.3223 28.0028 17.5247 28.4542 17.8819 28.7094L19.4127 29.7989C19.8963 30.1428 20.5713 30.0353 20.9204 29.5557L24.729 24.3233L24.0716 23.8545C23.5282 23.4676 23.4046 22.718 23.7958 22.1806C24.187 21.6433 24.9449 21.521 25.4896 21.9079Z" fill="#FC1055"/>
</svg>
