<svg width="22" height="22" viewBox="0 0 22 22" fill="none" xmlns="http://www.w3.org/2000/svg">
    <path fill-rule="evenodd" clip-rule="evenodd"
        d="M19.2258 6.25086C16.6029 1.7079 10.7938 0.151363 6.25086 2.77424C1.7079 5.39712 0.151364 11.2062 2.77424 15.7491C5.39712 20.2921 11.2062 21.8486 15.7491 19.2258C16.1079 19.0187 16.5666 19.1416 16.7737 19.5003C16.9808 19.859 16.8579 20.3177 16.4991 20.5248C11.2387 23.5619 4.5123 21.7595 1.47521 16.4991C-1.56189 11.2387 0.240458 4.5123 5.50086 1.47521C10.7613 -1.56189 17.4877 0.240458 20.5248 5.50086C21.4059 7.02696 21.88 8.67814 21.9799 10.3269C21.9931 10.3825 22 10.4404 22 10.5V12.75C22 14.683 20.433 16.25 18.5 16.25C17.136 16.25 15.9543 15.4698 15.3767 14.3313C14.372 15.6494 12.7853 16.5 11 16.5C7.96243 16.5 5.5 14.0376 5.5 11C5.5 7.96243 7.96243 5.5 11 5.5C13.9196 5.5 16.3079 7.77496 16.489 10.6489C16.4962 10.6908 16.5 10.7338 16.5 10.7778V12.75C16.5 13.8546 17.3954 14.75 18.5 14.75C19.6046 14.75 20.5 13.8546 20.5 12.75V10.9839C20.4989 9.37551 20.0888 7.74572 19.2258 6.25086ZM15 11C15 8.79086 13.2091 7 11 7C8.79086 7 7 8.79086 7 11C7 13.2091 8.79086 15 11 15C13.2091 15 15 13.2091 15 11Z"
        fill="#24292E" />
</svg>

