<svg width="18" height="21" viewBox="0 0 18 21" fill="none" xmlns="http://www.w3.org/2000/svg">
    <path fill-rule="evenodd" clip-rule="evenodd"
        d="M4.5 6.25C4.5 3.58009 6.42172 1.5 9 1.5C11.079 1.5 12.71 2.84093 13.2818 4.74211C13.4011 5.13877 13.8193 5.36363 14.216 5.24434C14.6127 5.12505 14.8375 4.70679 14.7182 4.31012C13.9709 1.82497 11.7919 0 9 0C5.50314 0 3 2.84478 3 6.25V8H2.5C1.11929 8 0 9.11929 0 10.5V18.5C0 19.8807 1.11929 21 2.5 21H15.5C16.8807 21 18 19.8807 18 18.5V10.5C18 9.11929 16.8807 8 15.5 8H4.5V6.25ZM1.5 10.5C1.5 9.94772 1.94772 9.5 2.5 9.5H15.5C16.0523 9.5 16.5 9.94772 16.5 10.5V18.5C16.5 19.0523 16.0523 19.5 15.5 19.5H2.5C1.94772 19.5 1.5 19.0523 1.5 18.5V10.5Z"
        fill="#24292E" />
</svg>
