<svg width="18" height="21" viewBox="0 0 18 21" fill="none" xmlns="http://www.w3.org/2000/svg">
    <path fill-rule="evenodd" clip-rule="evenodd"
        d="M3 8V6.25C3 2.84478 5.50314 0 9 0C12.4969 0 15 2.84478 15 6.25V8H15.5C16.8807 8 18 9.11929 18 10.5V18.5C18 19.8807 16.8807 21 15.5 21H2.5C1.11929 21 0 19.8807 0 18.5V10.5C0 9.11929 1.11929 8 2.5 8H3ZM4.5 6.25C4.5 3.58009 6.42172 1.5 9 1.5C11.5783 1.5 13.5 3.58009 13.5 6.25V8H4.5V6.25ZM1.5 10.5C1.5 9.94772 1.94772 9.5 2.5 9.5H15.5C16.0523 9.5 16.5 9.94772 16.5 10.5V18.5C16.5 19.0523 16.0523 19.5 15.5 19.5H2.5C1.94772 19.5 1.5 19.0523 1.5 18.5V10.5Z"
        fill="#24292E" />
</svg>
