<svg width="18" height="20" viewBox="0 0 18 20" fill="none" xmlns="http://www.w3.org/2000/svg">
    <path fill-rule="evenodd" clip-rule="evenodd"
        d="M9.00004 0.5C5.96251 0.5 3.50012 2.96245 3.50012 6C3.50012 7.88946 4.45289 9.5564 5.90419 10.5466C2.53963 11.7791 0.116049 14.9629 0.0040006 18.7277C-0.00832194 19.1417 0.317327 19.4873 0.731357 19.4997C1.14539 19.512 1.49101 19.1863 1.50334 18.7723C1.62347 14.7357 4.93397 11.5 8.99995 11.5C13.0659 11.5 16.3764 14.7357 16.4966 18.7723C16.5089 19.1863 16.8545 19.512 17.2685 19.4997C17.6826 19.4873 18.0082 19.1417 17.9959 18.7277C17.8839 14.963 15.4603 11.7791 12.0958 10.5466C13.5472 9.55645 14.5 7.88949 14.5 6C14.5 2.96245 12.0376 0.5 9.00004 0.5ZM5.00012 6C5.00012 3.79085 6.79096 2 9.00004 2C11.2091 2 13 3.79085 13 6C13 8.20915 11.2091 10 9.00004 10C6.79096 10 5.00012 8.20915 5.00012 6Z"
        fill="#24292E" />
</svg>
