<svg width="18" height="25" viewBox="0 0 18 25" fill="none" xmlns="http://www.w3.org/2000/svg">
<path opacity="0.2" fill-rule="evenodd" clip-rule="evenodd" d="M9 25C12.866 25 16 23.8807 16 22.5C16 21.1193 12.866 20 9 20C5.13401 20 2 21.1193 2 22.5C2 23.8807 5.13401 25 9 25Z" fill="#373A42"/>
<path fill-rule="evenodd" clip-rule="evenodd" d="M9.00007 0C6.50049 0.00143418 4.10359 1.00967 2.42689 2.76511C0.799415 4.47035 -0.0600355 6.75644 0.00326286 9.20316C0.075001 11.9482 1.37895 14.4465 2.64491 16.5304C4.49885 19.578 7.95072 22.5396 8.09701 22.6644C8.35865 22.8881 8.67936 23 9.00007 23C9.32078 23 9.64149 22.8881 9.90313 22.6644C10.0494 22.5396 13.4999 19.578 15.3552 16.529C16.5466 14.5699 17.9237 11.964 17.9969 9.20316C18.0588 6.75644 17.1993 4.47035 15.5733 2.76511C13.8951 1.00967 11.4997 0.00143418 9.00007 0Z" fill="white"/>
<path fill-rule="evenodd" clip-rule="evenodd" d="M6.4385 10.286C6.4385 8.87431 7.58684 7.72598 8.99791 7.72598C9.24394 7.72598 9.49606 7.73717 9.7216 7.82969C10.0702 7.9727 10.0702 8.39896 10.0702 8.39896L9.14426 9.32489C9.09586 9.3174 9.04804 9.30991 8.99791 9.30991C8.45975 9.30991 8.02243 9.74781 8.02243 10.286C8.02243 10.8235 8.45975 11.2614 8.99791 11.2614C9.53607 11.2614 9.97397 10.8235 9.97397 10.286C9.97397 10.2358 9.96648 10.1874 9.95899 10.1396L10.9068 9.19122L11.3505 9.28571C11.4847 9.60146 11.5573 9.93622 11.5573 10.286C11.5573 11.697 10.409 12.8454 8.99791 12.8454C7.58684 12.8454 6.4385 11.697 6.4385 10.286ZM11.9324 6.21177L12.0482 6.75741C12.0955 6.97982 12.2695 7.15383 12.4925 7.20108L13.0375 7.31631L12.0897 8.26471L11.1788 8.07111L10.9846 7.15959L11.9324 6.21177ZM14.603 7.38084C14.7523 7.23104 14.8076 7.01209 14.7477 6.80927C14.6877 6.60703 14.5218 6.45319 14.3149 6.4094L13.098 6.15127L12.8393 4.93437C12.7955 4.72752 12.6423 4.56158 12.4395 4.50165C12.2361 4.44173 12.0177 4.49704 11.8685 4.64685L9.94861 6.56612C9.91347 6.60127 9.88351 6.64102 9.85873 6.68366C9.57698 6.61625 9.28946 6.57361 8.99791 6.57361C6.9513 6.57361 5.28613 8.23878 5.28613 10.286C5.28613 12.3326 6.9513 13.9977 8.99791 13.9977C11.0445 13.9977 12.7097 12.3326 12.7097 10.286C12.7097 9.96964 12.6676 9.66138 12.5904 9.36234C12.6215 9.3416 12.6561 9.32777 12.6832 9.30069L14.603 7.38084Z" fill="#E69960"/>
</svg>
