<svg width="16" height="16" viewBox="0 0 16 16" fill="none" xmlns="http://www.w3.org/2000/svg">
<path fill-rule="evenodd" clip-rule="evenodd" d="M5.28785 10.1077C4.57644 10.1077 3.99994 9.55929 3.99994 8.88259C3.99994 8.20626 4.57644 7.65753 5.28785 7.65753C5.99887 7.65753 6.57537 8.20626 6.57537 8.88259C6.57537 9.55929 5.99887 10.1077 5.28785 10.1077ZM13.7484 6.53867L8.84259 2.39551C8.21802 1.86816 7.27748 1.86816 6.65291 2.39551L1.74707 6.53867C1.25082 6.95796 1.55206 7.73386 2.20726 7.75304C2.62015 7.76558 2.96325 8.05322 2.96325 8.44633V13.0195C2.96325 13.4037 3.29046 13.7146 3.69405 13.7146H6.35632C6.8138 13.7146 7.18482 13.3621 7.18482 12.9273V10.6741C7.18482 10.0317 7.73263 9.51061 8.40798 9.51061H8.91159C9.58734 9.51061 10.1351 10.0313 10.1351 10.6741V12.9273C10.1351 13.3621 10.5058 13.7146 10.9636 13.7146H11.8018C12.2054 13.7146 12.5326 13.4037 12.5326 13.0195V8.44633C12.5326 8.05322 12.8753 7.76558 13.2886 7.75304C13.943 7.73386 14.2451 6.95796 13.7484 6.53867Z" fill="#FC1055"/>
</svg>
