<svg width="24" height="24" viewBox="0 0 24 24" fill="none" xmlns="http://www.w3.org/2000/svg">
<path fill-rule="evenodd" clip-rule="evenodd" d="M17.086 11.0785H9.268L12.212 8.13449C12.7 7.64549 12.7 6.85449 12.212 6.36649C11.724 5.87849 10.933 5.87849 10.444 6.36649L5.366 11.4445C4.878 11.9325 4.878 12.7245 5.366 13.2125L10.444 18.2905C10.689 18.5345 11.008 18.6565 11.328 18.6565C11.649 18.6565 11.968 18.5345 12.212 18.2905C12.7 17.8025 12.7 17.0115 12.212 16.5225L9.268 13.5785H17.086C17.776 13.5785 18.336 13.0185 18.336 12.3285C18.336 11.6385 17.776 11.0785 17.086 11.0785Z" fill="black"/>
<mask id="mask0_0_1876" style="mask-type:alpha" maskUnits="userSpaceOnUse" x="5" y="6" width="14" height="13">
<path fill-rule="evenodd" clip-rule="evenodd" d="M17.086 11.0785H9.268L12.212 8.13449C12.7 7.64549 12.7 6.85449 12.212 6.36649C11.724 5.87849 10.933 5.87849 10.444 6.36649L5.366 11.4445C4.878 11.9325 4.878 12.7245 5.366 13.2125L10.444 18.2905C10.689 18.5345 11.008 18.6565 11.328 18.6565C11.649 18.6565 11.968 18.5345 12.212 18.2905C12.7 17.8025 12.7 17.0115 12.212 16.5225L9.268 13.5785H17.086C17.776 13.5785 18.336 13.0185 18.336 12.3285C18.336 11.6385 17.776 11.0785 17.086 11.0785Z" fill="white"/>
</mask>
<g mask="url(#mask0_0_1876)">
<rect x="-39.8027" y="-37.7212" width="96" height="96" fill="#373A42"/>
</g>
</svg>
