<svg width="24" height="24" viewBox="0 0 24 24" fill="none" xmlns="http://www.w3.org/2000/svg">
<path fill-rule="evenodd" clip-rule="evenodd" d="M8.05003 6C8.02859 6 8.0093 6 7.98786 6.00114C7.38117 6.01596 6.57296 6.16648 5.70473 7.22235C4.85686 8.252 4.83864 10.2862 5.30813 11.5815C5.98771 13.4561 7.35759 14.6237 8.56454 15.6545C9.96765 16.8506 11.33 17.6613 12.001 18C12.671 17.6602 14.0333 16.8506 15.4365 15.6545C16.6434 14.6237 18.0122 13.4561 18.6918 11.5815C19.1613 10.2862 19.1431 8.252 18.2963 7.22235C17.428 6.16648 16.6188 6.01596 16.011 6.00114C15.9906 6 15.9703 6 15.9488 6C14.5264 6 13.178 7.13569 12.6656 7.5667C12.2754 7.89282 11.7256 7.8951 11.3354 7.5667C10.823 7.13569 9.47136 6 8.05003 6ZM12.001 20C11.884 20 11.7679 19.9803 11.6561 19.9409C10.9274 19.678 9.0395 18.6191 7.30034 17.1714C5.97356 16.0676 4.32088 14.6922 3.44656 12.3377C2.74203 10.44 2.78106 7.62563 4.21963 5.92169C5.27853 4.66454 6.51777 4.03706 8.00591 4.00202C9.71027 3.98669 11.113 4.81457 12.001 5.46504C12.8869 4.81457 14.3413 3.95274 15.993 4.00202C17.4832 4.03706 18.7225 4.66454 19.7814 5.92279C21.2189 7.62563 21.2579 10.44 20.5534 12.3377C19.679 14.6922 18.0264 16.0676 16.7006 17.1714C14.9615 18.618 13.0736 19.678 12.3459 19.9409C12.233 19.9803 12.117 20 12.001 20Z" fill="#F15A24"/>
<mask id="mask0_0_1881" style="mask-type:alpha" maskUnits="userSpaceOnUse" x="3" y="4" width="18" height="16">
<path fill-rule="evenodd" clip-rule="evenodd" d="M8.05003 6C8.02859 6 8.0093 6 7.98786 6.00114C7.38117 6.01596 6.57296 6.16648 5.70473 7.22235C4.85686 8.252 4.83864 10.2862 5.30813 11.5815C5.98771 13.4561 7.35759 14.6237 8.56454 15.6545C9.96765 16.8506 11.33 17.6613 12.001 18C12.671 17.6602 14.0333 16.8506 15.4365 15.6545C16.6434 14.6237 18.0122 13.4561 18.6918 11.5815C19.1613 10.2862 19.1431 8.252 18.2963 7.22235C17.428 6.16648 16.6188 6.01596 16.011 6.00114C15.9906 6 15.9703 6 15.9488 6C14.5264 6 13.178 7.13569 12.6656 7.5667C12.2754 7.89282 11.7256 7.8951 11.3354 7.5667C10.823 7.13569 9.47136 6 8.05003 6ZM12.001 20C11.884 20 11.7679 19.9803 11.6561 19.9409C10.9274 19.678 9.0395 18.6191 7.30034 17.1714C5.97356 16.0676 4.32088 14.6922 3.44656 12.3377C2.74203 10.44 2.78106 7.62563 4.21963 5.92169C5.27853 4.66454 6.51777 4.03706 8.00591 4.00202C9.71027 3.98669 11.113 4.81457 12.001 5.46504C12.8869 4.81457 14.3413 3.95274 15.993 4.00202C17.4832 4.03706 18.7225 4.66454 19.7814 5.92279C21.2189 7.62563 21.2579 10.44 20.5534 12.3377C19.679 14.6922 18.0264 16.0676 16.7006 17.1714C14.9615 18.618 13.0736 19.678 12.3459 19.9409C12.233 19.9803 12.117 20 12.001 20Z" fill="white"/>
</mask>
<g mask="url(#mask0_0_1881)">
<rect x="-36" y="-36" width="96" height="96" fill="#373A42"/>
</g>
</svg>
