<svg width="24" height="24" viewBox="0 0 24 24" fill="none" xmlns="http://www.w3.org/2000/svg">
<path fill-rule="evenodd" clip-rule="evenodd" d="M7.16797 11.156C7.16797 8.95697 8.95697 7.16797 11.156 7.16797C13.355 7.16797 15.145 8.95697 15.145 11.156C15.145 13.355 13.355 15.144 11.156 15.144C8.95697 15.144 7.16797 13.355 7.16797 11.156ZM18.539 17.125L16.033 14.619C16.73 13.639 17.145 12.446 17.145 11.156C17.145 7.85397 14.458 5.16797 11.156 5.16797C7.85497 5.16797 5.16797 7.85397 5.16797 11.156C5.16797 14.458 7.85497 17.144 11.156 17.144C12.446 17.144 13.64 16.73 14.619 16.033L17.125 18.539C17.32 18.734 17.576 18.832 17.832 18.832C18.088 18.832 18.344 18.734 18.539 18.539C18.93 18.148 18.93 17.515 18.539 17.125Z" fill="black"/>
<mask id="mask0_0_1895" style="mask-type:alpha" maskUnits="userSpaceOnUse" x="5" y="5" width="14" height="14">
<path fill-rule="evenodd" clip-rule="evenodd" d="M7.16797 11.156C7.16797 8.95697 8.95697 7.16797 11.156 7.16797C13.355 7.16797 15.145 8.95697 15.145 11.156C15.145 13.355 13.355 15.144 11.156 15.144C8.95697 15.144 7.16797 13.355 7.16797 11.156ZM18.539 17.125L16.033 14.619C16.73 13.639 17.145 12.446 17.145 11.156C17.145 7.85397 14.458 5.16797 11.156 5.16797C7.85497 5.16797 5.16797 7.85397 5.16797 11.156C5.16797 14.458 7.85497 17.144 11.156 17.144C12.446 17.144 13.64 16.73 14.619 16.033L17.125 18.539C17.32 18.734 17.576 18.832 17.832 18.832C18.088 18.832 18.344 18.734 18.539 18.539C18.93 18.148 18.93 17.515 18.539 17.125Z" fill="white"/>
</mask>
<g mask="url(#mask0_0_1895)">
<rect x="-38" y="-34.3623" width="96" height="96" fill="#373A42"/>
</g>
</svg>
