<svg width="24" height="24" viewBox="0 0 24 24" fill="none" xmlns="http://www.w3.org/2000/svg">
<path fill-rule="evenodd" clip-rule="evenodd" d="M12.2481 3.84427L14.6957 6.29279C15.0619 6.65903 15.0619 7.25102 14.6957 7.61727C14.3294 7.98352 13.7374 7.98352 13.3712 7.61727L12.4907 6.73678V13.8453C12.4907 14.3633 12.0711 14.782 11.554 14.782C11.036 14.782 10.6173 14.3633 10.6173 13.8453V6.79954L9.7359 7.68003C9.55324 7.86362 9.31345 7.95448 9.07366 7.95448C8.83386 7.95448 8.59407 7.86362 8.41142 7.68003C8.04517 7.31472 8.04517 6.72179 8.41142 6.35555L10.9236 3.84427C11.0988 3.66818 11.3367 3.56982 11.5859 3.56982C11.8341 3.56982 12.072 3.66818 12.2481 3.84427ZM5.44304 20.4044H17.6641C18.182 20.4044 18.6007 19.9857 18.6007 19.4677V10.7162C18.6007 10.1982 18.182 9.77953 17.6641 9.77953H15.2746C14.7566 9.77953 14.3379 10.1982 14.3379 10.7162C14.3379 11.2342 14.7566 11.6529 15.2746 11.6529H16.7274V18.531H6.37973V11.6529H7.80069C8.31775 11.6529 8.73738 11.2342 8.73738 10.7162C8.73738 10.1982 8.31775 9.77953 7.80069 9.77953H5.44304C4.92505 9.77953 4.50635 10.1982 4.50635 10.7162V19.4677C4.50635 19.9857 4.92505 20.4044 5.44304 20.4044Z" fill="white"/>
<mask id="mask0_0_1904" style="mask-type:alpha" maskUnits="userSpaceOnUse" x="4" y="3" width="15" height="18">
<path fill-rule="evenodd" clip-rule="evenodd" d="M12.2481 3.84427L14.6957 6.29279C15.0619 6.65903 15.0619 7.25102 14.6957 7.61727C14.3294 7.98352 13.7374 7.98352 13.3712 7.61727L12.4907 6.73678V13.8453C12.4907 14.3633 12.0711 14.782 11.554 14.782C11.036 14.782 10.6173 14.3633 10.6173 13.8453V6.79954L9.7359 7.68003C9.55324 7.86362 9.31345 7.95448 9.07366 7.95448C8.83386 7.95448 8.59407 7.86362 8.41142 7.68003C8.04517 7.31472 8.04517 6.72179 8.41142 6.35555L10.9236 3.84427C11.0988 3.66818 11.3367 3.56982 11.5859 3.56982C11.8341 3.56982 12.072 3.66818 12.2481 3.84427ZM5.44304 20.4044H17.6641C18.182 20.4044 18.6007 19.9857 18.6007 19.4677V10.7162C18.6007 10.1982 18.182 9.77953 17.6641 9.77953H15.2746C14.7566 9.77953 14.3379 10.1982 14.3379 10.7162C14.3379 11.2342 14.7566 11.6529 15.2746 11.6529H16.7274V18.531H6.37973V11.6529H7.80069C8.31775 11.6529 8.73738 11.2342 8.73738 10.7162C8.73738 10.1982 8.31775 9.77953 7.80069 9.77953H5.44304C4.92505 9.77953 4.50635 10.1982 4.50635 10.7162V19.4677C4.50635 19.9857 4.92505 20.4044 5.44304 20.4044Z" fill="white"/>
</mask>
<g mask="url(#mask0_0_1904)">
<rect x="-32.9614" y="-33.8979" width="89.9224" height="89.9224" fill="#373A42"/>
</g>
</svg>
