<svg width="24" height="24" viewBox="0 0 24 24" fill="none" xmlns="http://www.w3.org/2000/svg">
<path fill-rule="evenodd" clip-rule="evenodd" d="M7.98923 17.7345L5.14923 14.8945C5.07523 14.8215 5.07523 14.7015 5.14923 14.6285L10.2372 9.5405L15.1162 14.4205L11.8022 17.7345H7.98923ZM19.9052 17.7345H14.6302L17.2372 15.1275H17.2382V15.1265L19.7722 12.5925C20.6252 11.7395 20.6252 10.3515 19.7722 9.4985L15.1582 4.8845C14.3302 4.0595 12.8892 4.0585 12.0642 4.8855L9.53123 7.4185C9.53123 7.4185 9.53023 7.4185 9.53023 7.4195C9.52923 7.4195 9.52923 7.4205 9.52923 7.4205L3.73523 13.2135C2.88123 14.0675 2.88123 15.4555 3.73523 16.3085L6.86723 19.4405C6.95923 19.5325 7.06923 19.6055 7.19023 19.6565C7.31123 19.7075 7.44223 19.7345 7.57523 19.7345H12.2162H19.9052C20.4572 19.7345 20.9052 19.2875 20.9052 18.7345C20.9052 18.1815 20.4572 17.7345 19.9052 17.7345Z" fill="black"/>
<mask id="mask0_0_1673" style="mask-type:alpha" maskUnits="userSpaceOnUse" x="3" y="4" width="18" height="16">
<path fill-rule="evenodd" clip-rule="evenodd" d="M7.98923 17.7345L5.14923 14.8945C5.07523 14.8215 5.07523 14.7015 5.14923 14.6285L10.2372 9.5405L15.1162 14.4205L11.8022 17.7345H7.98923ZM19.9052 17.7345H14.6302L17.2372 15.1275H17.2382V15.1265L19.7722 12.5925C20.6252 11.7395 20.6252 10.3515 19.7722 9.4985L15.1582 4.8845C14.3302 4.0595 12.8892 4.0585 12.0642 4.8855L9.53123 7.4185C9.53123 7.4185 9.53023 7.4185 9.53023 7.4195C9.52923 7.4195 9.52923 7.4205 9.52923 7.4205L3.73523 13.2135C2.88123 14.0675 2.88123 15.4555 3.73523 16.3085L6.86723 19.4405C6.95923 19.5325 7.06923 19.6055 7.19023 19.6565C7.31123 19.7075 7.44223 19.7345 7.57523 19.7345H12.2162H19.9052C20.4572 19.7345 20.9052 19.2875 20.9052 18.7345C20.9052 18.1815 20.4572 17.7345 19.9052 17.7345Z" fill="white"/>
</mask>
<g mask="url(#mask0_0_1673)">
<rect x="-35" y="-36" width="96" height="96" fill="#373A42"/>
</g>
</svg>
