<svg width="24" height="24" viewBox="0 0 24 24" fill="none" xmlns="http://www.w3.org/2000/svg">
<path fill-rule="evenodd" clip-rule="evenodd" d="M8.73437 7.57366H10.0407C10.6715 7.57366 11.1835 8.08566 11.1835 8.71651C11.1835 9.34737 10.6715 9.85937 10.0407 9.85937H8.73437V18.8571C8.73437 19.4879 8.22351 19.9999 7.59151 19.9999C6.96065 19.9999 6.44865 19.4879 6.44865 18.8571V9.85937H5.14237C4.51151 9.85937 3.99951 9.34737 3.99951 8.71651C3.99951 8.08566 4.51151 7.57366 5.14237 7.57366H6.44865V5.51651C6.44865 4.88566 6.96065 4.37366 7.59151 4.37366C8.22351 4.37366 8.73437 4.88566 8.73437 5.51651V7.57366ZM16.7612 13.6132H18.0675C18.6984 13.6132 19.2104 14.1252 19.2104 14.7561C19.2104 15.3869 18.6984 15.8989 18.0675 15.8989H16.7612V18.8566C16.7612 19.4886 16.2504 19.9995 15.6184 19.9995C14.9875 19.9995 14.4755 19.4886 14.4755 18.8566V15.8989H13.1692C12.5384 15.8989 12.0264 15.3869 12.0264 14.7561C12.0264 14.1252 12.5384 13.6132 13.1692 13.6132H14.4755V5.5172C14.4755 4.8852 14.9875 4.37434 15.6184 4.37434C16.2504 4.37434 16.7612 4.8852 16.7612 5.5172V13.6132Z" fill="#355F55"/>
<mask id="mask0_0_1682" style="mask-type:alpha" maskUnits="userSpaceOnUse" x="3" y="4" width="17" height="16">
<path fill-rule="evenodd" clip-rule="evenodd" d="M8.73437 7.57366H10.0407C10.6715 7.57366 11.1835 8.08566 11.1835 8.71651C11.1835 9.34737 10.6715 9.85937 10.0407 9.85937H8.73437V18.8571C8.73437 19.4879 8.22351 19.9999 7.59151 19.9999C6.96065 19.9999 6.44865 19.4879 6.44865 18.8571V9.85937H5.14237C4.51151 9.85937 3.99951 9.34737 3.99951 8.71651C3.99951 8.08566 4.51151 7.57366 5.14237 7.57366H6.44865V5.51651C6.44865 4.88566 6.96065 4.37366 7.59151 4.37366C8.22351 4.37366 8.73437 4.88566 8.73437 5.51651V7.57366ZM16.7612 13.6132H18.0675C18.6984 13.6132 19.2104 14.1252 19.2104 14.7561C19.2104 15.3869 18.6984 15.8989 18.0675 15.8989H16.7612V18.8566C16.7612 19.4886 16.2504 19.9995 15.6184 19.9995C14.9875 19.9995 14.4755 19.4886 14.4755 18.8566V15.8989H13.1692C12.5384 15.8989 12.0264 15.3869 12.0264 14.7561C12.0264 14.1252 12.5384 13.6132 13.1692 13.6132H14.4755V5.5172C14.4755 4.8852 14.9875 4.37434 15.6184 4.37434C16.2504 4.37434 16.7612 4.8852 16.7612 5.5172V13.6132Z" fill="white"/>
</mask>
<g mask="url(#mask0_0_1682)">
<rect x="-40" y="-38" width="96" height="96" fill="#373A42"/>
</g>
</svg>
