<svg width="24" height="24" viewBox="0 0 24 24" fill="none" xmlns="http://www.w3.org/2000/svg">
<path fill-rule="evenodd" clip-rule="evenodd" d="M16.9127 6.06954L4.45705 11.6203C3.76224 11.9304 3.88891 12.9532 4.63856 13.0837L9.44838 13.924C9.76884 13.9798 10.0194 14.2303 10.0761 14.5508L10.9155 19.3623C11.0469 20.111 12.0688 20.2377 12.3789 19.5429L17.9308 7.08668C18.2182 6.44199 17.5583 5.78122 16.9127 6.06954Z" fill="#C1C6C6"/>
<mask id="mask0_0_1691" style="mask-type:alpha" maskUnits="userSpaceOnUse" x="4" y="6" width="14" height="14">
<path fill-rule="evenodd" clip-rule="evenodd" d="M16.9127 6.06954L4.45705 11.6203C3.76224 11.9304 3.88891 12.9532 4.63856 13.0837L9.44838 13.924C9.76884 13.9798 10.0194 14.2303 10.0761 14.5508L10.9155 19.3623C11.0469 20.111 12.0688 20.2377 12.3789 19.5429L17.9308 7.08668C18.2182 6.44199 17.5583 5.78122 16.9127 6.06954Z" fill="white"/>
</mask>
<g mask="url(#mask0_0_1691)">
<rect x="-76" y="-78" width="168" height="168" fill="#373A42"/>
</g>
</svg>
