<svg width="24" height="24" viewBox="0 0 24 24" fill="none" xmlns="http://www.w3.org/2000/svg">
<path fill-rule="evenodd" clip-rule="evenodd" d="M15.9786 15.7478V11.245C15.9786 9.19341 14.309 7.52376 12.2574 7.52376C10.2058 7.52376 8.53732 9.19341 8.53732 11.245V15.7478H15.9786ZM6.17238 15.7526V11.245C6.17238 8.29473 8.28427 5.83165 11.0749 5.27825V5.18247C11.0749 4.52975 11.6046 4 12.2574 4C12.9101 4 13.4398 4.52975 13.4398 5.18247V5.27825C16.2305 5.83165 18.3435 8.29473 18.3435 11.245V15.7526C18.9833 15.7679 19.5 16.287 19.5 16.9303C19.5 17.583 18.9703 18.1128 18.3175 18.1128H17.1611H14.0311V18.1873C14.0311 19.1675 13.2376 19.961 12.2574 19.961C11.2771 19.961 10.4837 19.1675 10.4837 18.1873V18.1128H7.35485H6.1984C5.54449 18.1128 5.01593 17.583 5.01593 16.9303C5.01593 16.287 5.53148 15.7679 6.17238 15.7526Z" fill="black"/>
<mask id="mask0_0_1696" style="mask-type:alpha" maskUnits="userSpaceOnUse" x="5" y="4" width="15" height="16">
<path fill-rule="evenodd" clip-rule="evenodd" d="M15.9786 15.7478V11.245C15.9786 9.19341 14.309 7.52376 12.2574 7.52376C10.2058 7.52376 8.53732 9.19341 8.53732 11.245V15.7478H15.9786ZM6.17238 15.7526V11.245C6.17238 8.29473 8.28427 5.83165 11.0749 5.27825V5.18247C11.0749 4.52975 11.6046 4 12.2574 4C12.9101 4 13.4398 4.52975 13.4398 5.18247V5.27825C16.2305 5.83165 18.3435 8.29473 18.3435 11.245V15.7526C18.9833 15.7679 19.5 16.287 19.5 16.9303C19.5 17.583 18.9703 18.1128 18.3175 18.1128H17.1611H14.0311V18.1873C14.0311 19.1675 13.2376 19.961 12.2574 19.961C11.2771 19.961 10.4837 19.1675 10.4837 18.1873V18.1128H7.35485H6.1984C5.54449 18.1128 5.01593 17.583 5.01593 16.9303C5.01593 16.287 5.53148 15.7679 6.17238 15.7526Z" fill="white"/>
</mask>
<g mask="url(#mask0_0_1696)">
<rect width="96" height="96" transform="matrix(-1 0 0 1 78.3027 -37.7213)" fill="#373A42"/>
</g>
</svg>
