<svg width="24" height="24" viewBox="0 0 24 24" fill="none" xmlns="http://www.w3.org/2000/svg">
<path fill-rule="evenodd" clip-rule="evenodd" d="M6.914 11.0782H14.732L11.788 8.13424C11.3 7.64524 11.3 6.85424 11.788 6.36624C12.276 5.87824 13.067 5.87824 13.556 6.36624L18.634 11.4442C19.122 11.9322 19.122 12.7242 18.634 13.2122L13.556 18.2902C13.311 18.5342 12.992 18.6562 12.672 18.6562C12.351 18.6562 12.032 18.5342 11.788 18.2902C11.3 17.8022 11.3 17.0112 11.788 16.5222L14.732 13.5782H6.914C6.224 13.5782 5.664 13.0182 5.664 12.3282C5.664 11.6382 6.224 11.0782 6.914 11.0782Z" fill="black"/>
<mask id="mask0_0_1705" style="mask-type:alpha" maskUnits="userSpaceOnUse" x="5" y="6" width="14" height="13">
<path fill-rule="evenodd" clip-rule="evenodd" d="M6.914 11.0782H14.732L11.788 8.13424C11.3 7.64524 11.3 6.85424 11.788 6.36624C12.276 5.87824 13.067 5.87824 13.556 6.36624L18.634 11.4442C19.122 11.9322 19.122 12.7242 18.634 13.2122L13.556 18.2902C13.311 18.5342 12.992 18.6562 12.672 18.6562C12.351 18.6562 12.032 18.5342 11.788 18.2902C11.3 17.8022 11.3 17.0112 11.788 16.5222L14.732 13.5782H6.914C6.224 13.5782 5.664 13.0182 5.664 12.3282C5.664 11.6382 6.224 11.0782 6.914 11.0782Z" fill="white"/>
</mask>
<g mask="url(#mask0_0_1705)">
<rect width="96" height="96" transform="matrix(-1 0 0 1 63.8027 -37.7213)" fill="#373A42"/>
</g>
</svg>
