<svg width="24" height="24" viewBox="0 0 24 24" fill="none" xmlns="http://www.w3.org/2000/svg">
<path fill-rule="evenodd" clip-rule="evenodd" d="M8.97599 17.6762C9.20246 17.8873 9.506 18 9.81429 18C9.96724 18 10.1214 17.9724 10.2684 17.916C10.7107 17.7447 11 17.3414 11 16.8949V7.10507C11 6.49507 10.4688 6 9.81429 6C9.15977 6 8.62858 6.49507 8.62858 7.10507V14.2262L7.02431 12.731C6.56069 12.3 5.81132 12.3 5.34771 12.731C4.8841 13.1631 4.8841 13.8626 5.34771 14.2936L8.97599 17.6762ZM13 16.895C13 17.505 13.5312 18 14.1857 18C14.8402 18 15.3714 17.505 15.3714 16.895V9.77337L16.9757 11.2684C17.4393 11.7005 18.1887 11.7005 18.6523 11.2684C19.1159 10.8375 19.1159 10.138 18.6523 9.70597L15.024 6.3247C14.6837 6.00757 14.175 5.91254 13.7316 6.08492C13.2893 6.2562 13 6.65952 13 7.10593V16.895Z" fill="#355F55"/>
<mask id="mask0_0_1711" style="mask-type:alpha" maskUnits="userSpaceOnUse" x="5" y="6" width="14" height="12">
<path fill-rule="evenodd" clip-rule="evenodd" d="M8.97599 17.6762C9.20246 17.8873 9.506 18 9.81429 18C9.96724 18 10.1214 17.9724 10.2684 17.916C10.7107 17.7447 11 17.3414 11 16.8949V7.10507C11 6.49507 10.4688 6 9.81429 6C9.15977 6 8.62858 6.49507 8.62858 7.10507V14.2262L7.02431 12.731C6.56069 12.3 5.81132 12.3 5.34771 12.731C4.8841 13.1631 4.8841 13.8626 5.34771 14.2936L8.97599 17.6762ZM13 16.895C13 17.505 13.5312 18 14.1857 18C14.8402 18 15.3714 17.505 15.3714 16.895V9.77337L16.9757 11.2684C17.4393 11.7005 18.1887 11.7005 18.6523 11.2684C19.1159 10.8375 19.1159 10.138 18.6523 9.70597L15.024 6.3247C14.6837 6.00757 14.175 5.91254 13.7316 6.08492C13.2893 6.2562 13 6.65952 13 7.10593V16.895Z" fill="white"/>
</mask>
<g mask="url(#mask0_0_1711)">
<rect x="-40" y="-38" width="96" height="96" fill="#373A42"/>
</g>
</svg>
